<?xml version="1.0" encoding="UTF-8" standalone="no"?>
<svg
   xmlns:dc="http://purl.org/dc/elements/1.1/"
   xmlns:cc="http://creativecommons.org/ns#"
   xmlns:rdf="http://www.w3.org/1999/02/22-rdf-syntax-ns#"
   xmlns:svg="http://www.w3.org/2000/svg"
   xmlns="http://www.w3.org/2000/svg"
   xmlns:sodipodi="http://sodipodi.sourceforge.net/DTD/sodipodi-0.dtd"
   xmlns:inkscape="http://www.inkscape.org/namespaces/inkscape"
   id="Livello_1"
   data-name="Livello 1"
   viewBox="0 0 314.28001 187.58001"
   version="1.1"
   sodipodi:docname="logo_antinori-NEW.svg"
   width="314.28"
   height="187.58"
   inkscape:version="0.92.3 (2405546, 2018-03-11)">
  <metadata
     id="metadata193">
    <rdf:RDF>
      <cc:Work
         rdf:about="">
        <dc:format>image/svg+xml</dc:format>
        <dc:type
           rdf:resource="http://purl.org/dc/dcmitype/StillImage" />
        <dc:title>logo_antinori</dc:title>
      </cc:Work>
    </rdf:RDF>
  </metadata>
  <sodipodi:namedview
     pagecolor="#ffffff"
     bordercolor="#666666"
     borderopacity="1"
     objecttolerance="10"
     gridtolerance="10"
     guidetolerance="10"
     inkscape:pageopacity="0"
     inkscape:pageshadow="2"
     inkscape:window-width="1920"
     inkscape:window-height="1017"
     id="namedview191"
     showgrid="false"
     inkscape:zoom="2.0802815"
     inkscape:cx="119.57829"
     inkscape:cy="94.565191"
     inkscape:window-x="1912"
     inkscape:window-y="121"
     inkscape:window-maximized="1"
     inkscape:current-layer="Livello_1"
     showguides="false" />
  <defs
     id="defs4">
    <style
       id="style2">.cls-1{fill:#000100;}</style>
  </defs>
  <title
     id="title6">logo_antinori</title>
  <path
     class="cls-1"
     d="m 88.8,185.87 a 3.65,3.65 0 0 1 1,-1 7,7 0 0 1 1.24,-0.71 c 0.45,-0.2 0.86,-0.4 1.24,-0.59 a 4.65,4.65 0 0 0 0.95,-0.63 1.07,1.07 0 0 0 0.38,-0.85 1.11,1.11 0 0 0 -0.42,-0.94 1.94,1.94 0 0 0 -1.2,-0.32 2.78,2.78 0 0 0 -1,0.17 3.1,3.1 0 0 0 -0.73,0.41 1.93,1.93 0 0 0 -0.43,0.45 0.57,0.57 0 0 0 -0.13,0.31 0.34,0.34 0 0 0 0,0.14 c 0,0 0,0.09 0,0.13 l -0.14,0.11 -1.14,-1.43 0.14,-0.09 0.13,0.09 a 0.27,0.27 0 0 0 0.15,0.06 0.57,0.57 0 0 0 0.36,-0.19 4.33,4.33 0 0 1 0.58,-0.41 4.13,4.13 0 0 1 0.91,-0.41 4.43,4.43 0 0 1 1.39,-0.19 2.9,2.9 0 0 1 1.91,0.56 1.87,1.87 0 0 1 0.68,1.54 1.68,1.68 0 0 1 -0.33,1.05 3.11,3.11 0 0 1 -0.82,0.75 6.42,6.42 0 0 1 -1.08,0.56 c -0.39,0.16 -0.76,0.34 -1.11,0.51 a 5,5 0 0 0 -0.9,0.57 1.29,1.29 0 0 0 -0.47,0.76 h 4.71 a 0.45,0.45 0 0 0 0.29,-0.07 0.35,0.35 0 0 0 0.07,-0.25 h 0.18 v 1.55 h -0.18 a 0.2,0.2 0 0 0 -0.07,-0.18 0.52,0.52 0 0 0 -0.29,-0.05 h -5.65 a 0.34,0.34 0 0 0 -0.41,0.23 h -0.17 v -0.16 a 2.7,2.7 0 0 1 0.37,-1.46"
     id="path8"
     style="fill:#ffffff;fill-opacity:1"
     inkscape:connector-curvature="0" />
  <path
     class="cls-1"
     d="m 104.61,181.86 -0.16,-0.07 a 0.3,0.3 0 0 0 0,-0.11 0.28,0.28 0 0 0 0,-0.09 0.38,0.38 0 0 0 -0.16,-0.25 1.62,1.62 0 0 0 -0.42,-0.25 2.87,2.87 0 0 0 -0.59,-0.19 3,3 0 0 0 -0.68,-0.08 3.16,3.16 0 0 0 -1.1,0.18 2.45,2.45 0 0 0 -0.84,0.51 2.41,2.41 0 0 0 -0.53,0.75 2.36,2.36 0 0 0 -0.18,0.91 c 0,0 0,0.08 0,0.12 a 0.89,0.89 0 0 1 0,0.13 v 0 a 2.31,2.31 0 0 1 1.06,-0.75 4.72,4.72 0 0 1 1.41,-0.19 4.38,4.38 0 0 1 1.11,0.14 3,3 0 0 1 1,0.44 2.36,2.36 0 0 1 0.68,0.73 2,2 0 0 1 0.26,1 2.15,2.15 0 0 1 -0.85,1.82 3.92,3.92 0 0 1 -2.35,0.63 4.69,4.69 0 0 1 -1.54,-0.24 2.75,2.75 0 0 1 -1.1,-0.71 3.18,3.18 0 0 1 -0.68,-1.1 4.06,4.06 0 0 1 -0.23,-1.4 4.6,4.6 0 0 1 0.26,-1.59 3.4,3.4 0 0 1 0.76,-1.22 3.3,3.3 0 0 1 1.2,-0.8 4.21,4.21 0 0 1 1.59,-0.28 5,5 0 0 1 0.9,0.07 c 0.26,0.05 0.49,0.11 0.68,0.17 l 0.48,0.17 a 1,1 0 0 0 0.29,0.07 0.26,0.26 0 0 0 0.18,-0.06 l 0.1,-0.12 0.17,0.11 z m -0.34,2.26 a 1.55,1.55 0 0 0 -0.48,-0.51 2.17,2.17 0 0 0 -0.69,-0.27 4,4 0 0 0 -0.81,-0.08 3,3 0 0 0 -0.8,0.11 2.5,2.5 0 0 0 -0.7,0.32 1.57,1.57 0 0 0 -0.5,0.51 1.25,1.25 0 0 0 -0.19,0.68 1.41,1.41 0 0 0 0.21,0.81 1.53,1.53 0 0 0 0.56,0.53 2.45,2.45 0 0 0 0.78,0.28 4.5,4.5 0 0 0 0.89,0.08 2.5,2.5 0 0 0 0.75,-0.1 1.75,1.75 0 0 0 0.61,-0.31 1.42,1.42 0 0 0 0.41,-0.52 1.71,1.71 0 0 0 0.14,-0.73 1.57,1.57 0 0 0 -0.18,-0.79"
     id="path10"
     style="fill:#ffffff;fill-opacity:1"
     inkscape:connector-curvature="0" />
  <path
     class="cls-1"
     d="m 119.8,184.84 h -0.17 v -1.62 h 0.17 a 0.41,0.41 0 0 0 0.51,0.41 h 3.12 v 0.16 a 0.23,0.23 0 0 0 -0.21,0.07 0.45,0.45 0 0 0 -0.06,0.29 v 1.2 a 0.51,0.51 0 0 0 0.06,0.3 0.33,0.33 0 0 0 0.2,0.09 v 0.16 a 6.42,6.42 0 0 1 -2.14,1.09 7.85,7.85 0 0 1 -2,0.3 6.16,6.16 0 0 1 -1.77,-0.24 4.2,4.2 0 0 1 -1.41,-0.72 3.39,3.39 0 0 1 -0.93,-1.13 3.15,3.15 0 0 1 -0.33,-1.45 3.4,3.4 0 0 1 0.32,-1.5 3.85,3.85 0 0 1 0.9,-1.2 4.24,4.24 0 0 1 1.35,-0.8 5,5 0 0 1 1.71,-0.29 7.2,7.2 0 0 1 1.56,0.14 5.7,5.7 0 0 1 1,0.33 4.08,4.08 0 0 1 0.63,0.32 0.69,0.69 0 0 0 0.36,0.14 0.27,0.27 0 0 0 0.16,0 l 0.1,-0.12 0.17,0.11 -1,1.41 -0.17,-0.11 a 0.23,0.23 0 0 0 0.06,-0.17 0.48,0.48 0 0 0 -0.22,-0.3 2.73,2.73 0 0 0 -0.6,-0.36 5,5 0 0 0 -0.91,-0.3 4.85,4.85 0 0 0 -1.13,-0.12 3.84,3.84 0 0 0 -1.4,0.23 2.66,2.66 0 0 0 -1,0.6 2.37,2.37 0 0 0 -0.56,0.87 3,3 0 0 0 -0.18,1 2.59,2.59 0 0 0 0.25,1.19 2.66,2.66 0 0 0 0.67,0.87 3,3 0 0 0 1,0.53 3.36,3.36 0 0 0 1.11,0.19 5.7,5.7 0 0 0 1.71,-0.23 4.25,4.25 0 0 0 1.25,-0.58 v -1 h -1.67 c -0.34,0 -0.51,0.1 -0.51,0.3"
     id="path12"
     style="fill:#ffffff;fill-opacity:1"
     inkscape:connector-curvature="0" />
  <path
     class="cls-1"
     d="m 127.66,180.3 a 0.34,0.34 0 0 0 -0.27,-0.09 v -0.16 h 6.07 a 1.06,1.06 0 0 0 0.48,-0.06 0.22,0.22 0 0 0 0.1,-0.21 h 0.18 v 1.56 h -0.18 a 0.36,0.36 0 0 0 -0.12,-0.29 0.71,0.71 0 0 0 -0.44,-0.1 h -4.53 v 2.17 h 2.95 a 0.91,0.91 0 0 0 0.42,-0.09 0.29,0.29 0 0 0 0.17,-0.3 h 0.18 v 1.66 h -0.18 a 0.31,0.31 0 0 0 -0.13,-0.29 0.82,0.82 0 0 0 -0.44,-0.08 h -3 v 2.33 h 4.88 a 0.85,0.85 0 0 0 0.46,-0.1 0.44,0.44 0 0 0 0.14,-0.37 h 0.17 v 1.63 h -0.17 c 0,-0.18 -0.17,-0.26 -0.51,-0.26 h -6.49 v -0.16 a 0.34,0.34 0 0 0 0.27,-0.09 0.35,0.35 0 0 0 0.07,-0.24 v -6.22 a 0.36,0.36 0 0 0 -0.07,-0.24"
     id="path14"
     style="fill:#ffffff;fill-opacity:1"
     inkscape:connector-curvature="0" />
  <path
     class="cls-1"
     d="m 145.47,185.45 v -4.91 a 0.38,0.38 0 0 0 -0.08,-0.24 0.34,0.34 0 0 0 -0.28,-0.09 v -0.16 h 1.74 v 0.17 a 0.34,0.34 0 0 0 -0.27,0.09 0.4,0.4 0 0 0 -0.07,0.24 v 6.22 a 0.4,0.4 0 0 0 0.07,0.24 0.34,0.34 0 0 0 0.27,0.09 v 0.12 H 145 v -0.16 c 0.19,0 0.29,0 0.29,-0.11 a 0.23,0.23 0 0 0 -0.06,-0.16 l -0.09,-0.11 -5.16,-5.55 v 5.6 a 0.4,0.4 0 0 0 0.07,0.24 0.36,0.36 0 0 0 0.27,0.09 v 0.16 h -1.74 v -0.16 a 0.35,0.35 0 0 0 0.27,-0.09 0.4,0.4 0 0 0 0.07,-0.24 v -6.22 a 0.4,0.4 0 0 0 -0.07,-0.24 0.35,0.35 0 0 0 -0.27,-0.09 v -0.16 h 2.45 v 0.2 a 0.48,0.48 0 0 0 -0.22,0 0.12,0.12 0 0 0 -0.06,0.11 0.15,0.15 0 0 0 0,0.09 l 0.08,0.09 4.55,4.91 v 0 z"
     id="path16"
     style="fill:#ffffff;fill-opacity:1"
     inkscape:connector-curvature="0" />
  <path
     class="cls-1"
     d="m 151.51,180.3 a 0.36,0.36 0 0 0 -0.28,-0.09 v -0.16 h 6.07 a 1.07,1.07 0 0 0 0.48,-0.06 0.23,0.23 0 0 0 0.1,-0.21 h 0.18 v 1.56 h -0.18 a 0.37,0.37 0 0 0 -0.12,-0.29 0.7,0.7 0 0 0 -0.45,-0.1 h -4.51 v 2.17 h 2.95 a 0.92,0.92 0 0 0 0.43,-0.09 0.29,0.29 0 0 0 0.17,-0.3 h 0.17 v 1.66 h -0.17 a 0.32,0.32 0 0 0 -0.13,-0.29 0.81,0.81 0 0 0 -0.44,-0.08 h -3 v 2.33 h 4.84 a 0.84,0.84 0 0 0 0.45,-0.1 0.44,0.44 0 0 0 0.14,-0.37 h 0.17 v 1.63 h -0.17 c 0,-0.18 -0.17,-0.26 -0.51,-0.26 h -6.49 v -0.16 a 0.36,0.36 0 0 0 0.28,-0.09 0.37,0.37 0 0 0 0.07,-0.24 v -6.22 a 0.38,0.38 0 0 0 -0.07,-0.24"
     id="path18"
     style="fill:#ffffff;fill-opacity:1"
     inkscape:connector-curvature="0" />
  <path
     class="cls-1"
     d="m 164.08,187.01 a 0.34,0.34 0 0 0 0.28,0.09 v 0.12 h -1.91 v -0.16 a 0.33,0.33 0 0 0 0.28,-0.09 0.37,0.37 0 0 0 0.08,-0.24 v -6.23 a 0.37,0.37 0 0 0 -0.08,-0.24 0.33,0.33 0 0 0 -0.28,-0.09 v -0.16 h 4.86 a 3.24,3.24 0 0 1 2.06,0.51 1.82,1.82 0 0 1 0.63,1.49 1.92,1.92 0 0 1 -0.48,1.37 2.53,2.53 0 0 1 -1.57,0.64 l 1.83,2.67 a 1.32,1.32 0 0 0 0.25,0.29 0.59,0.59 0 0 0 0.31,0.07 v 0.17 h -2.09 v -0.16 a 0.66,0.66 0 0 0 0.24,0 0.09,0.09 0 0 0 0.05,-0.1 0.21,0.21 0 0 0 -0.08,-0.15 l -1.78,-2.68 h -2.67 v 2.63 a 0.39,0.39 0 0 0 0.07,0.24 m 3.1,-3.8 a 1.91,1.91 0 0 0 1.25,-0.32 1.08,1.08 0 0 0 0.36,-0.87 1.31,1.31 0 0 0 -0.07,-0.46 0.65,0.65 0 0 0 -0.26,-0.32 1.28,1.28 0 0 0 -0.52,-0.19 4.23,4.23 0 0 0 -0.83,-0.07 H 164 v 2.25 h 3.18 z"
     id="path20"
     style="fill:#ffffff;fill-opacity:1"
     inkscape:connector-curvature="0" />
  <path
     class="cls-1"
     d="m 175.03,186.44 -0.13,0.28 a 0.59,0.59 0 0 0 -0.07,0.23 c 0,0.1 0.08,0.15 0.24,0.15 v 0.12 h -1.77 v -0.16 h 0.14 a 0.2,0.2 0 0 0 0.13,-0.09 1.59,1.59 0 0 0 0.13,-0.2 l 0.19,-0.35 2.63,-5.54 q 0.11,-0.24 0.18,-0.35 a 0.55,0.55 0 0 0 0.05,-0.19 c 0,-0.11 -0.09,-0.17 -0.26,-0.17 v -0.16 h 2.12 v 0.21 c -0.15,0 -0.23,0.05 -0.23,0.17 a 0.54,0.54 0 0 0 0.07,0.21 c 0.05,0.09 0.11,0.21 0.2,0.36 l 2.78,5.46 c 0.09,0.16 0.15,0.3 0.2,0.38 a 1.24,1.24 0 0 0 0.14,0.2 0.27,0.27 0 0 0 0.14,0.09 h 0.21 v 0.13 h -2 v -0.16 a 0.44,0.44 0 0 0 0.23,0 0.17,0.17 0 0 0 0.05,-0.14 0.39,0.39 0 0 0 0,-0.14 c 0,0 -0.08,-0.16 -0.15,-0.32 l -0.55,-1.1 h -4.1 z m 4.11,-2 -1.64,-3.22 -1.51,3.23 h 3.14 z"
     id="path22"
     style="fill:#ffffff;fill-opacity:1"
     inkscape:connector-curvature="0" />
  <path
     class="cls-1"
     d="m 185.55,180.95 a 0.74,0.74 0 0 0 -0.39,0.08 0.3,0.3 0 0 0 -0.11,0.28 h -0.18 v -1.62 h 0.18 c 0,0.24 0.17,0.36 0.51,0.36 h 6.37 v 0.11 l -5,6.2 h 4.33 c 0.34,0 0.51,-0.13 0.51,-0.38 h 0.18 v 1.6 h -0.15 a 0.25,0.25 0 0 0 -0.11,-0.26 1,1 0 0 0 -0.39,-0.05 h -6.37 v -0.15 l 4.86,-6.17 h -4.2 z"
     id="path24"
     style="fill:#ffffff;fill-opacity:1"
     inkscape:connector-curvature="0" />
  <path
     class="cls-1"
     d="m 195.74,187.09 a 0.35,0.35 0 0 0 0.27,-0.09 0.37,0.37 0 0 0 0.07,-0.24 v -6.23 a 0.36,0.36 0 0 0 -0.07,-0.24 0.33,0.33 0 0 0 -0.27,-0.09 v -0.16 h 1.91 v 0.18 a 0.33,0.33 0 0 0 -0.27,0.09 0.34,0.34 0 0 0 -0.07,0.24 v 6.23 a 0.35,0.35 0 0 0 0.07,0.24 0.34,0.34 0 0 0 0.27,0.09 v 0.11 h -1.91 v -0.16 z"
     id="path26"
     style="fill:#ffffff;fill-opacity:1"
     inkscape:connector-curvature="0" />
  <path
     class="cls-1"
     d="m 207.54,180.22 a 4.06,4.06 0 0 1 1.39,0.71 3.33,3.33 0 0 1 0.91,1.15 4,4 0 0 1 0,3.16 3.25,3.25 0 0 1 -0.91,1.15 3.74,3.74 0 0 1 -1.39,0.69 6.78,6.78 0 0 1 -3.48,0 3.68,3.68 0 0 1 -1.38,-0.69 3.18,3.18 0 0 1 -0.88,-1.17 4,4 0 0 1 0,-3.16 3.27,3.27 0 0 1 0.92,-1.15 4,4 0 0 1 1.38,-0.71 6.5,6.5 0 0 1 3.48,0 m -4,1.43 a 2.94,2.94 0 0 0 0,4 3.92,3.92 0 0 0 4.57,0 2.92,2.92 0 0 0 0,-4 3.93,3.93 0 0 0 -4.57,0"
     id="path28"
     style="fill:#ffffff;fill-opacity:1"
     inkscape:connector-curvature="0" />
  <path
     class="cls-1"
     d="m 220.87,185.45 v -4.91 a 0.4,0.4 0 0 0 -0.07,-0.24 0.36,0.36 0 0 0 -0.28,-0.09 v -0.16 h 1.74 v 0.17 a 0.33,0.33 0 0 0 -0.27,0.09 0.36,0.36 0 0 0 -0.08,0.24 v 6.22 a 0.36,0.36 0 0 0 0.08,0.24 0.33,0.33 0 0 0 0.27,0.09 v 0.12 h -1.85 v -0.16 c 0.19,0 0.29,0 0.29,-0.11 a 0.22,0.22 0 0 0 -0.05,-0.16 l -0.09,-0.11 -5.16,-5.55 v 5.6 a 0.4,0.4 0 0 0 0.07,0.24 0.37,0.37 0 0 0 0.28,0.09 v 0.16 H 214 v -0.16 a 0.36,0.36 0 0 0 0.28,-0.09 0.4,0.4 0 0 0 0.07,-0.24 v -6.22 a 0.4,0.4 0 0 0 -0.07,-0.24 0.36,0.36 0 0 0 -0.28,-0.09 v -0.16 h 2.45 v 0.2 a 0.48,0.48 0 0 0 -0.22,0 0.11,0.11 0 0 0 -0.05,0.11 0.12,0.12 0 0 0 0,0.09 l 0.08,0.09 4.55,4.91 v 0 z"
     id="path30"
     style="fill:#ffffff;fill-opacity:1"
     inkscape:connector-curvature="0" />
  <path
     class="cls-1"
     d="m 226.67,187.09 a 0.35,0.35 0 0 0 0.27,-0.09 0.37,0.37 0 0 0 0.07,-0.24 v -6.23 a 0.36,0.36 0 0 0 -0.07,-0.24 0.34,0.34 0 0 0 -0.27,-0.09 v -0.16 h 1.91 v 0.18 a 0.33,0.33 0 0 0 -0.28,0.09 0.38,0.38 0 0 0 -0.07,0.24 v 6.23 a 0.39,0.39 0 0 0 0.07,0.24 0.35,0.35 0 0 0 0.28,0.09 v 0.11 h -1.91 v -0.16 z"
     id="path32"
     style="fill:#ffffff;fill-opacity:1"
     inkscape:connector-curvature="0" />
  <rect
     class="cls-1"
     x="12.68"
     y="184.47"
     width="70.769997"
     height="0.58999997"
     id="rect34"
     style="fill:#ffffff;fill-opacity:1" />
  <rect
     class="cls-1"
     x="231.57999"
     y="184.47"
     width="70.779999"
     height="0.58999997"
     id="rect36"
     style="fill:#ffffff;fill-opacity:1" />
  <path
     class="cls-1"
     d="m 125.29,94.22 c -16.51,10.71 -21.22,21.33 -29.55,21.33 -3.29,0 -5.34,-1.42 -5.34,-3.25 a 1.66,1.66 0 0 1 1.79,-1.77 1.29,1.29 0 0 1 1.34,1.25 c 0,0.93 -1.12,1 -1.12,1.71 0,0.9 1.09,1.67 3.51,1.67 5.76,0 10.46,-6.24 18.79,-13.48 a 77.31,77.31 0 0 1 12.14,-8.78 0.13,0.13 0 0 1 0.15,0.13 c 0,0.23 -0.15,0.06 -2.95,3.09 -5.45,5.89 -11.76,15.76 -11.76,17.53 a 0.35,0.35 0 0 0 0.37,0.29 c 1.28,0 10.5,-11.26 18.49,-17.67 3.4,-2.73 4.41,-3.38 4.6,-3.38 a 0.09,0.09 0 0 1 0.11,0.1 c 0,0.16 -0.59,0.58 -2.13,2.61 -5.64,7.46 -11,15.24 -11,18.75 a 0.91,0.91 0 0 0 0.93,0.8 c 1.31,0 3.36,-1.54 4.44,-2.51 2.06,-1.8 2,-2 2.13,-2 a 0.2,0.2 0 0 1 0.22,0.16 9.92,9.92 0 0 1 -1.9,1.93 c -2,1.8 -3.59,2.77 -5.23,2.77 -1.64,0 -2.46,-0.87 -2.46,-2.64 0,-5.08 9.67,-14.93 13.26,-18.34 l -0.08,-0.07 c -10.34,7.34 -19.83,20.85 -23,20.85 a 1.16,1.16 0 0 1 -1.19,-1.29 c 0,-4.89 9.41,-14.6 15.39,-19.78 v -0.01 z"
     id="path38"
     style="fill:#ffffff;fill-opacity:1"
     inkscape:connector-curvature="0" />
  <path
     class="cls-1"
     d="m 143.72,106.62 c -1,1.09 -5.38,6.82 -5.38,7.95 0,0.26 0.15,0.45 0.63,0.45 1.12,0 3.14,-1.67 5.31,-3.86 a 1.67,1.67 0 0 1 0.56,-0.51 0.22,0.22 0 0 1 0.23,0.2 c 0,0.06 -1.2,1.22 -2.06,2 -1.72,1.54 -3.14,2.54 -4.15,2.54 -1.01,0 -1.64,-0.45 -1.64,-2.22 0,-0.22 0,-0.42 0,-0.58 -1.12,1 -3.21,2.8 -4.63,2.8 -1.9,0 -2.35,-1.48 -2.35,-2.93 a 6.84,6.84 0 0 1 0.19,-1.51 c -0.08,0 -0.15,0.09 -0.23,0.09 a 0.18,0.18 0 0 1 -0.15,-0.16 1.91,1.91 0 0 1 0.6,-0.67 c 2,-2.12 5,-3.77 7.62,-3.77 a 1.46,1.46 0 0 1 1.61,1.58 2.66,2.66 0 0 1 -0.11,0.87 l 0.08,0.06 c 1.34,-1.83 1.27,-2.25 2.05,-2.28 z m -11.09,8.4 c 2.17,0 6.84,-4.63 6.84,-7 a 1.07,1.07 0 0 0 -1.16,-1.16 c -3,0 -6.53,4.83 -6.53,7.14 a 0.86,0.86 0 0 0 0.86,1"
     id="path40"
     style="fill:#ffffff;fill-opacity:1"
     inkscape:connector-curvature="0" />
  <path
     class="cls-1"
     d="m 145.33,115.4 c 3.77,-5.24 5.76,-7.24 5.76,-8.11 a 0.55,0.55 0 0 0 -0.64,-0.45 c -0.52,0 -1.42,0.36 -2.91,1.67 -2.28,2 -2.62,2.57 -2.76,2.57 a 0.17,0.17 0 0 1 -0.19,-0.16 21.33,21.33 0 0 1 2.2,-2.22 c 1.61,-1.48 2.77,-2.25 3.81,-2.25 a 1.44,1.44 0 0 1 1.46,1.51 c 0,1.29 -1.61,3.47 -2.35,4.34 l 0.08,0.07 c 2,-2 3.81,-3.06 4.15,-3.93 a 2.79,2.79 0 0 1 2.46,-2 c 0.64,0 0.9,0.16 0.9,0.52 0,1.25 -4.18,2.22 -4.18,4.44 a 1.15,1.15 0 0 0 1.23,1.09 2.57,2.57 0 0 0 1.68,-0.64 c 0.82,-0.7 1.12,-1.22 1.27,-1.22 a 0.2,0.2 0 0 1 0.23,0.16 7.85,7.85 0 0 1 -0.93,1 3.2,3.2 0 0 1 -2.28,1 1.49,1.49 0 0 1 -1.64,-1.26 2.46,2.46 0 0 1 0.75,-1.8 l -0.08,-0.06 a 49.54,49.54 0 0 0 -5.64,5.5 z"
     id="path42"
     style="fill:#ffffff;fill-opacity:1"
     inkscape:connector-curvature="0" />
  <path
     class="cls-1"
     d="m 165.73,109.42 a 0.8,0.8 0 0 1 -0.93,-0.8 c 0,-0.84 1.12,-0.52 1.12,-1.22 a 0.71,0.71 0 0 0 -0.86,-0.55 c -2.24,0 -5.94,3.25 -5.94,6.92 0,0.84 0.48,1.25 1.57,1.25 a 8,8 0 0 0 4.78,-2.31 c 2,-1.8 2.09,-2.09 2.2,-2.09 a 0.2,0.2 0 0 1 0.22,0.2 9.81,9.81 0 0 1 -1.45,1.47 c -2.35,2.22 -4.15,3.12 -6,3.12 -2.32,0 -3,-2 -3,-3.54 a 4.26,4.26 0 0 1 0.11,-0.87 0.07,0.07 0 0 0 -0.07,-0.06 1.69,1.69 0 0 0 -0.26,0.13 0.17,0.17 0 0 1 -0.19,-0.16 6,6 0 0 1 1.28,-1.39 8.87,8.87 0 0 1 6.35,-3.05 c 1.46,0 2.43,0.54 2.43,1.57 a 1.42,1.42 0 0 1 -1.38,1.39"
     id="path44"
     style="fill:#ffffff;fill-opacity:1"
     inkscape:connector-curvature="0" />
  <path
     class="cls-1"
     d="m 165.99,115.4 c 2.06,-3.12 4.14,-6 6.24,-8.75 v -0.07 c -1,1 -1.57,1.68 -2.91,2.93 -1.61,1.51 -1.61,1.64 -1.76,1.64 -0.15,0 -0.15,-0.07 -0.15,-0.19 0,-0.32 4.41,-3.8 7.74,-8.72 l 4,-6 2.28,-0.22 c -1.42,2.15 -8.29,11.87 -10.95,15.92 l 0.08,0.07 c 3.59,-3.54 6.31,-5.57 7.62,-5.57 a 1.49,1.49 0 0 1 1.5,1.67 c 0,1.77 -4.11,5 -4.11,6.43 a 0.49,0.49 0 0 0 0.56,0.45 c 1.16,0 2.28,-0.9 4.37,-2.76 a 24.52,24.52 0 0 1 1.91,-1.77 0.16,0.16 0 0 1 0.19,0.16 16.31,16.31 0 0 1 -1.87,1.9 c -2.65,2.51 -3.89,2.86 -4.78,2.86 -0.74,0 -1.5,-0.35 -1.5,-1.77 0,-2.84 4.11,-5.09 4.11,-6.38 a 0.45,0.45 0 0 0 -0.41,-0.42 c -2,0 -8.78,6.6 -9.82,8.37 z"
     id="path46"
     style="fill:#ffffff;fill-opacity:1"
     inkscape:connector-curvature="0" />
  <path
     class="cls-1"
     d="m 184.01,112.22 a 5.14,5.14 0 0 0 -0.15,1.06 c 0,1.25 0.41,1.67 1.57,1.7 1.16,0.03 3,-0.61 5.23,-2.54 1.46,-1.29 1.83,-1.86 2,-1.86 a 0.17,0.17 0 0 1 0.19,0.19 16.36,16.36 0 0 1 -2.58,2.48 8,8 0 0 1 -5.08,2.12 c -2.06,0 -3,-1.74 -3,-3.41 a 5.8,5.8 0 0 1 0.11,-0.93 c 0,-0.06 0,-0.06 0,-0.06 a 0.29,0.29 0 0 1 -0.11,0.1 0.34,0.34 0 0 1 -0.19,-0.19 10.36,10.36 0 0 1 1.38,-1.39 c 2.05,-1.8 4.44,-3.06 6.46,-3.06 a 1.65,1.65 0 0 1 1.87,1.54 c 0,2.41 -5.49,3.86 -7.7,4.25 m 0.15,-0.39 c 2.47,-0.26 6.43,-2.09 6.43,-4.41 a 0.61,0.61 0 0 0 -0.75,-0.61 c -2,0 -5.16,3.22 -5.68,5"
     id="path48"
     style="fill:#ffffff;fill-opacity:1"
     inkscape:connector-curvature="0" />
  <path
     class="cls-1"
     d="m 199.59,112.41 c -2,2 -3.77,3 -5.86,3 a 2.55,2.55 0 0 1 -1.68,-0.35 1.59,1.59 0 0 1 -0.6,-1.1 0.81,0.81 0 0 1 0.93,-0.9 0.71,0.71 0 0 1 0.79,0.52 c 0,0.64 -0.52,0.38 -0.52,1 a 0.51,0.51 0 0 0 0.63,0.48 c 1.76,0 3.77,-3.54 3.77,-5.28 0,-1.55 0,-2.86 0.23,-3 l -0.08,-0.07 c -0.45,0.22 -3.43,3.28 -4.33,4.15 a 0.55,0.55 0 0 1 -0.34,0.26 0.13,0.13 0 0 1 -0.15,-0.13 10.47,10.47 0 0 1 1.65,-1.77 34.42,34.42 0 0 1 3.25,-3 1.66,1.66 0 0 1 1.23,-1 c 0.45,0 0.64,0.19 0.64,0.48 0,0.61 -0.82,0.8 -1.49,1 a 2.59,2.59 0 0 0 -0.15,0.74 c 0,2.38 0.78,3.09 0.78,4.41 a 2.69,2.69 0 0 1 -1,1.93 v 0 a 13.25,13.25 0 0 0 2.69,-2.25 4.06,4.06 0 0 1 0.93,-0.9 0.17,0.17 0 0 1 0.18,0.19 12.63,12.63 0 0 1 -1.53,1.61"
     id="path50"
     style="fill:#ffffff;fill-opacity:1"
     inkscape:connector-curvature="0" />
  <path
     class="cls-1"
     d="m 207.36,106.46 c -4.48,6.37 -5.19,7.21 -5.19,7.88 a 0.62,0.62 0 0 0 0.71,0.68 c 1.19,0 2.91,-1.29 4.14,-2.38 1,-0.84 2.21,-2.12 2.28,-2.12 a 0.18,0.18 0 0 1 0.22,0.16 15.86,15.86 0 0 1 -2.28,2.25 c -1.83,1.64 -3.36,2.47 -4.41,2.47 a 1.62,1.62 0 0 1 -1.79,-1.67 c 0,-2.15 2.28,-4.34 3.55,-6 l -0.07,-0.06 c -0.45,0.38 -1.39,1.22 -3.18,3 a 0.86,0.86 0 0 1 -0.52,0.42 0.16,0.16 0 0 1 -0.15,-0.2 8.05,8.05 0 0 1 1.12,-1.15 c 1,-1 2.65,-2.44 3.21,-3.12 z m 2.62,-6.31 a 0.81,0.81 0 0 1 0.86,0.84 1.28,1.28 0 0 1 -1.31,1.22 0.81,0.81 0 0 1 -0.86,-0.84 1.29,1.29 0 0 1 1.31,-1.22"
     id="path52"
     style="fill:#ffffff;fill-opacity:1"
     inkscape:connector-curvature="0" />
  <path
     class="cls-1"
     d="m 140.67,133.6 z m -0.51,-0.47 0.51,0.47 v -0.47 z"
     id="path54"
     style="fill:#ffffff;fill-opacity:1"
     inkscape:connector-curvature="0" />
  <polygon
     class="cls-1"
     points="148.21,163.82 140.13,163.82 140.65,164.3 148.68,164.3 148.68,162.77 148.21,162.27 "
     id="polygon56"
     style="fill:#ffffff;fill-opacity:1"
     transform="translate(0.04,0.03)" />
  <polygon
     class="cls-1"
     points="148.68,132.06 148.21,131.56 148.21,133.1 146.52,133.1 146.52,161.07 147,161.07 147,133.57 148.68,133.57 "
     id="polygon58"
     style="fill:#ffffff;fill-opacity:1"
     transform="translate(0.04,0.03)" />
  <path
     class="cls-1"
     d="m 306.23,133.6 z m -0.51,-0.47 0.51,0.47 v -0.47 z"
     id="path60"
     style="fill:#ffffff;fill-opacity:1"
     inkscape:connector-curvature="0" />
  <polygon
     class="cls-1"
     points="313.76,163.82 305.67,163.82 306.2,164.3 314.24,164.3 314.24,162.77 313.76,162.27 "
     id="polygon62"
     style="fill:#ffffff;fill-opacity:1"
     transform="translate(0.04,0.03)" />
  <polygon
     class="cls-1"
     points="312.55,133.58 314.24,133.58 314.24,132.93 314.24,132.22 314.24,132.06 313.76,131.56 313.76,132.08 313.76,133.1 312.72,133.1 312.07,133.1 312.07,161.07 312.55,161.07 "
     id="polygon64"
     style="fill:#ffffff;fill-opacity:1"
     transform="translate(0.04,0.03)" />
  <polygon
     class="cls-1"
     points="53.11,138.88 52.64,138.32 52.64,161.07 53.11,161.07 "
     id="polygon66"
     style="fill:#ffffff;fill-opacity:1"
     transform="translate(0.04,0.03)" />
  <polygon
     class="cls-1"
     points="74.47,133.57 74.61,133.57 74.69,133.57 74.69,133.1 73.95,133.1 "
     id="polygon68"
     style="fill:#ffffff;fill-opacity:1"
     transform="translate(0.04,0.03)" />
  <polygon
     class="cls-1"
     points="47.9,133.56 47.9,133.09 47.16,133.09 47.68,133.56 "
     id="polygon70"
     style="fill:#ffffff;fill-opacity:1"
     transform="translate(0.04,0.03)" />
  <polygon
     class="cls-1"
     points="54.55,163.82 47.16,163.82 47.68,164.3 55.03,164.3 55.03,162.77 54.55,162.27 "
     id="polygon72"
     style="fill:#ffffff;fill-opacity:1"
     transform="translate(0.04,0.03)" />
  <polygon
     class="cls-1"
     points="75.51,164.24 80.35,164.24 80.25,133.58 82.17,133.58 82.17,132.06 81.69,131.57 81.69,133.1 79.76,133.1 79.87,163.77 75.11,163.77 "
     id="polygon74"
     style="fill:#ffffff;fill-opacity:1"
     transform="translate(0.04,0.03)" />
  <polygon
     class="cls-1"
     points="170.9,138.88 170.42,138.32 170.42,161.07 170.9,161.07 "
     id="polygon76"
     style="fill:#ffffff;fill-opacity:1"
     transform="translate(0.04,0.03)" />
  <polygon
     class="cls-1"
     points="165.69,133.56 165.69,133.09 164.93,133.09 165.46,133.56 "
     id="polygon78"
     style="fill:#ffffff;fill-opacity:1"
     transform="translate(0.04,0.03)" />
  <polygon
     class="cls-1"
     points="192.25,133.57 192.39,133.57 192.48,133.57 192.48,133.1 191.73,133.1 "
     id="polygon80"
     style="fill:#ffffff;fill-opacity:1"
     transform="translate(0.04,0.03)" />
  <polygon
     class="cls-1"
     points="193.29,164.24 198.13,164.24 198.03,133.58 199.95,133.58 199.95,132.06 199.47,131.57 199.47,133.1 197.54,133.1 197.65,163.77 192.89,163.77 "
     id="polygon82"
     style="fill:#ffffff;fill-opacity:1"
     transform="translate(0.04,0.03)" />
  <polygon
     class="cls-1"
     points="172.33,163.82 164.93,163.82 165.46,164.3 172.81,164.3 172.81,162.77 172.33,162.27 "
     id="polygon84"
     style="fill:#ffffff;fill-opacity:1"
     transform="translate(0.04,0.03)" />
  <polygon
     class="cls-1"
     points="122.92,135.49 122.92,135.08 122.92,135.02 113.67,135.02 113.67,161.04 114.15,161.04 114.15,135.49 "
     id="polygon86"
     style="fill:#ffffff;fill-opacity:1"
     transform="translate(0.04,0.03)" />
  <polygon
     class="cls-1"
     points="107.27,135.5 107.27,135.02 98.03,135.02 98.03,136.1 96.51,136.1 97.04,136.57 98.51,136.57 98.51,135.5 "
     id="polygon88"
     style="fill:#ffffff;fill-opacity:1"
     transform="translate(0.04,0.03)" />
  <polygon
     class="cls-1"
     points="115.39,163.78 106.83,163.78 107.36,164.26 115.88,164.26 115.88,162.74 115.39,162.25 "
     id="polygon90"
     style="fill:#ffffff;fill-opacity:1"
     transform="translate(0.04,0.03)" />
  <polygon
     class="cls-1"
     points="125.65,136.1 124.14,136.1 124.66,136.57 126.13,136.57 126.13,130.97 125.65,130.47 "
     id="polygon92"
     style="fill:#ffffff;fill-opacity:1"
     transform="translate(0.04,0.03)" />
  <polygon
     class="cls-1"
     points="8.88,151.21 9.7,151.21 15.64,137.88 15.25,136.92 "
     id="polygon94"
     style="fill:#ffffff;fill-opacity:1"
     transform="translate(0.04,0.03)" />
  <polygon
     class="cls-1"
     points="19.51,130.93 19.06,130.93 32.61,161 33.06,161 "
     id="polygon96"
     style="fill:#ffffff;fill-opacity:1"
     transform="translate(0.04,0.03)" />
  <path
     class="cls-1"
     d="M 22.8,154.95 H 7.3 c 0,0 -2.42,5.83 -2.51,6.09 h 0.79 l 0.08,-0.19 2.25,-5.43 h 15.13 l -0.21,-0.47"
     id="path98"
     style="fill:#ffffff;fill-opacity:1"
     inkscape:connector-curvature="0" />
  <polygon
     class="cls-1"
     points="34.29,163.77 25.75,163.77 26.27,164.25 34.76,164.25 34.76,162.71 34.29,162.21 "
     id="polygon100"
     style="fill:#ffffff;fill-opacity:1"
     transform="translate(0.04,0.03)" />
  <polygon
     class="cls-1"
     points="6.07,163.77 0.2,163.77 0.67,164.25 6.55,164.25 6.55,162.67 6.07,162.21 "
     id="polygon102"
     style="fill:#ffffff;fill-opacity:1"
     transform="translate(0.04,0.03)" />
  <path
     class="cls-1"
     d="m 219.66,137.97 a 13.44,13.44 0 0 0 -3.58,9.15 13,13 0 0 0 1.72,6.47 13.36,13.36 0 0 1 -1.24,-5.62 c 0,-7.21 5.61,-13.37 12.62,-13.39 a 11.85,11.85 0 0 1 4.89,1.07 11.45,11.45 0 0 0 -5.75,-1.54 11.81,11.81 0 0 0 -8.66,3.86"
     id="path104"
     style="fill:#ffffff;fill-opacity:1"
     inkscape:connector-curvature="0" />
  <path
     class="cls-1"
     d="m 245.34,140.01 a 16.63,16.63 0 0 1 -3.77,19.15 19.46,19.46 0 0 1 -13.25,4.78 v 0 a 21,21 0 0 1 -8.84,-1.87 20.23,20.23 0 0 0 9.7,2.35 19.08,19.08 0 0 0 13,-4.69 16.21,16.21 0 0 0 3.17,-19.72"
     id="path106"
     style="fill:#ffffff;fill-opacity:1"
     inkscape:connector-curvature="0" />
  <path
     class="cls-1"
     d="m 258.44,133.59 z m -0.52,-0.47 0.52,0.47 v -0.47 z"
     id="path108"
     style="fill:#ffffff;fill-opacity:1"
     inkscape:connector-curvature="0" />
  <path
     class="cls-1"
     d="m 265.14,135.47 h 10.66 a 13.23,13.23 0 0 1 5,0.79 10.81,10.81 0 0 0 -5.82,-1.26 h -10.32 v 10.06 h 0.48 z"
     id="path110"
     style="fill:#ffffff;fill-opacity:1"
     inkscape:connector-curvature="0" />
  <path
     class="cls-1"
     d="m 284.49,149.86 a 12,12 0 0 1 0.72,1.63 v 0 l 3,9.55 h 0.39 l -2.75,-8.6 a 7.57,7.57 0 0 0 -1.42,-2.6"
     id="path112"
     style="fill:#ffffff;fill-opacity:1"
     inkscape:connector-curvature="0" />
  <path
     class="cls-1"
     d="m 275.55,149.7 h -10.9 v 11.36 h 0.49 v -10.84 h 11.28 a 2.76,2.76 0 0 1 0.55,0.12 3.14,3.14 0 0 0 -1.42,-0.59"
     id="path114"
     style="fill:#ffffff;fill-opacity:1"
     inkscape:connector-curvature="0" />
  <polygon
     class="cls-1"
     points="290.47,163.79 283.35,163.79 284.03,164.27 290.95,164.27 290.95,162.74 290.47,162.25 "
     id="polygon116"
     style="fill:#ffffff;fill-opacity:1"
     transform="translate(0.04,0.03)" />
  <path
     class="cls-1"
     d="m 288.43,140 a 9,9 0 0 1 -2.37,6.29 10,10 0 0 1 -2.74,2.06 4.23,4.23 0 0 1 0.56,0.58 9.15,9.15 0 0 0 3.8,-12.77 9.38,9.38 0 0 1 0.76,3.83"
     id="path118"
     style="fill:#ffffff;fill-opacity:1"
     inkscape:connector-curvature="0" />
  <polygon
     class="cls-1"
     points="266.31,163.77 257.89,163.77 258.41,164.25 266.79,164.25 266.79,162.74 266.31,162.24 "
     id="polygon120"
     style="fill:#ffffff;fill-opacity:1"
     transform="translate(0.04,0.03)" />
  <polygon
     class="cls-1"
     points="147.18,162.08 145.49,162.08 145.49,132.08 147.18,132.08 147.18,131.37 139.93,131.37 139.93,132.08 141.67,132.08 141.67,162.08 139.93,162.08 139.93,162.8 147.18,162.8 "
     id="polygon122"
     style="fill:#ffffff;fill-opacity:1"
     transform="translate(0.04,0.03)" />
  <polygon
     class="cls-1"
     points="305.49,162.08 305.49,162.8 312.73,162.8 312.73,162.08 311.04,162.08 311.04,132.08 312.73,132.08 312.73,131.37 305.49,131.37 305.49,132.08 307.23,132.08 307.23,162.08 "
     id="polygon124"
     style="fill:#ffffff;fill-opacity:1"
     transform="translate(0.04,0.03)" />
  <path
     class="cls-1"
     d="m 73.8,132.11 h 2 v 24.54 c 0,0 -21.67,-25.16 -21.66,-25.25 h -7.11 v 0.71 h 2 v 30 h -2 v 0.71 h 6.56 v -0.71 h -1.92 v -26.53 l 23.36,27.2 h 3.87 l -0.1,-30.67 h 1.92 V 131.4 H 73.8 Z"
     id="path126"
     style="fill:#ffffff;fill-opacity:1"
     inkscape:connector-curvature="0" />
  <path
     class="cls-1"
     d="m 191.57,132.11 h 2 v 24.54 c 0,0 -21.66,-25.16 -21.65,-25.25 h -7.12 v 0.71 h 2 v 30 h -2 v 0.71 h 6.57 v -0.71 h -1.92 v -26.53 l 23.35,27.2 h 3.87 l -0.1,-30.67 h 1.93 v -0.71 h -6.91 v 0.71 z"
     id="path128"
     style="fill:#ffffff;fill-opacity:1"
     inkscape:connector-curvature="0" />
  <polygon
     class="cls-1"
     points="97,134 108.31,134 108.31,162.06 106.64,162.06 106.64,162.76 114.37,162.76 114.37,162.06 112.65,162.06 112.64,134 123.95,134 123.95,135.08 124.62,135.08 124.62,130.28 123.95,130.28 123.95,131.37 97,131.37 97,130.28 96.31,130.28 96.31,135.08 97,135.08 "
     id="polygon130"
     style="fill:#ffffff;fill-opacity:1"
     transform="translate(0.04,0.03)" />
  <path
     class="cls-1"
     d="M 31.97,162.03 17.88,130.76 H 15.31 L 1.8,161.22 c -0.13,0.29 -0.26,0.56 -0.39,0.82 H 0 v 0.74 h 5 v -0.74 H 3.4 a 8.53,8.53 0 0 1 0.72,-2.3 l 2.41,-5.83 h 16.88 l 2.71,6 a 6.36,6.36 0 0 1 0.59,2.09 h -1.2 v 0.74 h 7.7 V 162 H 31.9 v 0 m -24.56,-9.78 8,-17.93 7.29,17.93 z"
     id="path132"
     style="fill:#ffffff;fill-opacity:1"
     inkscape:connector-curvature="0" />
  <path
     class="cls-1"
     d="m 228.32,131 c -9.68,0 -17.53,6.72 -17.53,16 0,9.28 7.41,16 17.53,16 10.12,0 17.48,-6.78 17.48,-16.04 0,-9.26 -7.85,-16 -17.53,-16 m 0,30 c -7.2,0 -13.28,-6.34 -13.28,-13.88 0,-7.54 5.86,-14 13.28,-14 7.42,0 13.28,6.49 13.28,14 0,7.51 -6.07,13.88 -13.28,13.88"
     id="path134"
     style="fill:#ffffff;fill-opacity:1"
     inkscape:connector-curvature="0" />
  <path
     class="cls-1"
     d="m 284.25,151.84 c -0.56,-1.52 -1.26,-3.09 -3.33,-3.56 h -0.1 c 3.17,-0.91 6.57,-3.39 6.57,-8.25 0,-6.12 -5.21,-8.6 -11,-8.6 h -18.7 v 0.7 h 1.73 c 0,0 0,0.08 0,0.13 v 29.72 c 0,0 0,0.09 0,0.13 h -1.73 v 0.71 h 7.58 v -0.71 h -1.67 c 0,0 0,-0.09 0,-0.13 v -13.3 h 12 c 1.09,0.1 3.09,0.92 4.1,3.91 l 3.46,10.2 h 6.31 v -0.71 h -2 z m -9.36,-5.77 h -11.26 v -12.09 h 11.27 c 6.58,0 8.86,2.69 8.86,6.28 0,3.59 -2.63,5.81 -8.86,5.81"
     id="path136"
     style="fill:#ffffff;fill-opacity:1"
     inkscape:connector-curvature="0" />
  <path
     class="cls-1"
     d="m 167.05,38.42 -9.61,24.65 -9.64,-24.65 -10.29,26.4 10.29,25.4 9.66,-23.86 9.59,23.86 10.3,-25.41 z m -20,5.32 0.78,2.15 h -1.63 z m -1.25,3.18 h 2.44 l 0.76,1.93 h -4 z m -1.16,3.09 h 4.83 l 0.75,1.93 h -6.42 z m -1.22,3 h 7.2 l 0.74,2.07 h -8.7 z m -1.15,3.1 h 9.53 l 0.83,1.92 h -11.18 z m -1.23,3 h 12 l 0.75,2 H 140.3 Z m -1.15,3.06 h 14.26 l 0.83,2 h -15.92 z m 7.18,23 -0.73,-1.75 h 1.36 z m 1.05,-2.77 h -2.19 l -0.78,-1.91 h 3.74 z m 1.19,-3 h -4.57 l -0.86,-2 h 6.28 z m 1.26,-3 h -7.11 l -0.78,-2 h 8.67 z m 1.19,-3.1 h -9.49 l -0.84,-2.08 h 11.2 z m 1.27,-2.95 h -12 l -0.78,-2.07 h 13.55 z m 1.2,-3.09 H 139.8 l -0.83,-2.04 h 16.12 z m 12.07,17.94 -8.18,-20.25 8.18,-21.07 8.19,21.07 z"
     id="path138"
     style="fill:#ffffff;fill-opacity:1"
     inkscape:connector-curvature="0" />
  <path
     class="cls-1"
     d="m 157.4,6.84 c 0.57,0.52 1.08,2.93 0.2,3.51 a 0.54,0.54 0 0 1 -0.58,0 0.64,0.64 0 0 0 0.39,-0.44 8.4,8.4 0 0 0 0,-3.07"
     id="path140"
     style="fill:#ffffff;fill-opacity:1"
     inkscape:connector-curvature="0" />
  <path
     class="cls-1"
     d="m 166.67,9.07 a 0.79,0.79 0 0 0 0.86,1.26 0.36,0.36 0 0 0 0.21,-0.38 0.64,0.64 0 0 1 -1,-0.5 1,1 0 0 1 0.59,-0.43 c -0.06,-0.38 -0.42,0 -0.62,0.05"
     id="path142"
     style="fill:#ffffff;fill-opacity:1"
     inkscape:connector-curvature="0" />
  <path
     class="cls-1"
     d="m 167.28,9.01 a 1,1 0 0 0 -0.59,0.44 0.63,0.63 0 0 0 1,0.5 0.37,0.37 0 0 1 -0.21,0.39 0.79,0.79 0 0 1 -0.86,-1.26 c 0.17,-0.12 0.55,-0.44 0.62,-0.06"
     id="path144"
     style="fill:#ffffff;fill-opacity:1"
     inkscape:connector-curvature="0" />
  <path
     class="cls-1"
     d="m 178.68,10.71 a 5.34,5.34 0 0 0 -0.35,-0.67 2.59,2.59 0 0 1 -0.89,-0.7 c 0.85,-0.18 1.19,0.62 1.42,1.23 a 0.29,0.29 0 0 1 -0.18,0.15"
     id="path146"
     style="fill:#ffffff;fill-opacity:1"
     inkscape:connector-curvature="0" />
  <path
     class="cls-1"
     d="m 137,9.45 a 2,2 0 0 1 -0.85,0.67 c -0.21,0.2 -0.26,0.45 -0.45,0.67 -0.26,-0.3 0,-0.61 0.32,-0.93 a 0.93,0.93 0 0 1 1,-0.42"
     id="path148"
     style="fill:#ffffff;fill-opacity:1"
     inkscape:connector-curvature="0" />
  <path
     class="cls-1"
     d="m 133.65,10.82 a 0.27,0.27 0 0 1 0.09,0 3.89,3.89 0 0 1 0.83,2.54 0.83,0.83 0 0 1 -1.06,0.85 0.83,0.83 0 0 0 0.32,-0.52 8.69,8.69 0 0 0 -0.17,-2.82 c -0.05,0 0,-0.05 0,-0.09"
     id="path150"
     style="fill:#ffffff;fill-opacity:1"
     inkscape:connector-curvature="0" />
  <path
     class="cls-1"
     d="m 181.07,11.15 h 0.07 a 5,5 0 0 1 0.32,2 1,1 0 0 1 -1,1.09 4.65,4.65 0 0 0 0.28,-0.45 c 0.16,-1 0.26,-1.63 0.34,-2.6 a 0.12,0.12 0 0 1 0,-0.09"
     id="path152"
     style="fill:#ffffff;fill-opacity:1"
     inkscape:connector-curvature="0" />
  <path
     class="cls-1"
     d="m 176.96,12.67 a 1.23,1.23 0 0 0 -1.15,0.29 1,1 0 0 1 -0.42,0.53 c -0.25,-0.66 0.59,-1.19 1.22,-1.11 0.13,0 0.39,0 0.35,0.29"
     id="path154"
     style="fill:#ffffff;fill-opacity:1"
     inkscape:connector-curvature="0" />
  <path
     class="cls-1"
     d="m 139.07,13.58 a 0.48,0.48 0 0 1 -0.27,-0.36 1.56,1.56 0 0 0 -1.24,-0.53 c 0.05,-0.24 0.43,-0.23 0.65,-0.21 a 0.93,0.93 0 0 1 0.89,1.08"
     id="path156"
     style="fill:#ffffff;fill-opacity:1"
     inkscape:connector-curvature="0" />
  <path
     class="cls-1"
     d="m 163.33,19.96 a 48,48 0 0 1 11.69,2 0.93,0.93 0 0 1 0.59,0.3 c -0.11,0.31 -0.44,0.11 -0.62,0.05 -0.7,-0.22 -1.36,-0.42 -2.1,-0.62 a 39.83,39.83 0 0 0 -6.16,-1.09 c -0.7,-0.06 -1.53,-0.21 -2.37,-0.29 a 1.13,1.13 0 0 1 -1,-0.35"
     id="path158"
     style="fill:#ffffff;fill-opacity:1"
     inkscape:connector-curvature="0" />
  <path
     class="cls-1"
     d="m 149.97,20.35 a 53.68,53.68 0 0 0 -11.51,2.25 c -0.19,0.06 -0.45,0.28 -0.61,0 a 0.63,0.63 0 0 1 0.52,-0.33 45.71,45.71 0 0 1 7.66,-1.75 c 1,-0.16 2.12,-0.35 3.13,-0.4 a 1.47,1.47 0 0 1 0.81,0.22"
     id="path160"
     style="fill:#ffffff;fill-opacity:1"
     inkscape:connector-curvature="0" />
  <path
     class="cls-1"
     d="m 151.9,25.71 a 13.17,13.17 0 0 1 -2.23,0.28 38,38 0 0 0 -4.44,0.68 c -0.87,0.17 -1.62,0.32 -2.41,0.55 a 10.68,10.68 0 0 0 -2.72,1.06 0.81,0.81 0 0 0 -0.44,0.58 0.79,0.79 0 0 0 0.41,0.73 1,1 0 0 1 -1.18,-0.93 c 0,-0.84 1.62,-1.24 2.81,-1.58 a 34.87,34.87 0 0 1 5,-1 c 0.92,-0.12 1.85,-0.28 2.72,-0.35 a 15.59,15.59 0 0 1 2.48,0"
     id="path162"
     style="fill:#ffffff;fill-opacity:1"
     inkscape:connector-curvature="0" />
  <path
     class="cls-1"
     d="m 173.33,27.16 c 0,0.15 0,0.22 0,0.38 a 33.29,33.29 0 0 0 -6.57,-1.22 1.43,1.43 0 0 1 0,-0.18 c 0.06,0 0,-0.1 0.11,-0.1 a 29.38,29.38 0 0 1 6.46,1.12"
     id="path164"
     style="fill:#ffffff;fill-opacity:1"
     inkscape:connector-curvature="0" />
  <path
     class="cls-1"
     d="m 172.8,29.95 a 0.77,0.77 0 0 1 0,-0.35 6.5,6.5 0 0 0 0,-1 0.87,0.87 0 0 0 -0.47,-0.17 c -0.05,0.3 0,0.7 -0.08,1.07 -0.74,-0.46 -0.54,-0.19 -0.57,-1.16 -0.06,0 -0.35,-0.12 -0.48,-0.16 a 2.72,2.72 0 0 1 0,0.62 0.75,0.75 0 0 1 -0.34,-0.17 2.61,2.61 0 0 0 0,-0.47 57.47,57.47 0 0 0 -5.9,-0.87 c -1.17,-0.13 -2.29,-0.18 -3.51,-0.24 -0.54,0 -1.5,-0.06 -2,-0.06 h -2.35 c -0.41,0 -0.94,0 -1.25,0 0,0.1 0,0.17 0,0.41 a 3,3 0 0 1 -0.35,0.67 c 0,-0.31 0,-0.83 0,-1.1 -0.36,0 -0.67,0 -1,0 a 4.45,4.45 0 0 0 0,1 c -0.16,0.09 -0.4,0.72 -0.53,0.73 0,-0.44 0,-1.25 0,-1.7 -0.37,0 -0.62,0 -1.06,0 0,0.5 0,0.93 0,1.53 a 7.59,7.59 0 0 1 -0.56,0.67 c 0,-0.65 0,-1.35 0,-2.2 -0.33,0 -0.64,0 -0.92,0.09 -0.08,0.69 0,1.12 -0.06,1.86 a 6.65,6.65 0 0 1 -0.74,0.75 c 0.06,-0.69 0,-1.76 0.05,-2.5 a 2.34,2.34 0 0 0 -0.77,0.06 c 0,0.77 0,1.28 0,2.08 -0.26,0.1 -0.55,0.67 -0.8,0.78 0,-0.82 0,-1.72 0,-2.75 a 3,3 0 0 0 -0.59,0 c -0.07,0.93 0,1.31 0,2.29 -0.26,0.08 -0.52,0.65 -0.8,0.7 0.08,-0.93 0,-1.89 0,-2.85 a 2.46,2.46 0 0 0 -0.65,0.06 c 0,0.91 0,1.46 0,2.46 -0.21,0.08 -0.61,0.59 -0.77,0.63 0,-1 0,-1.95 0,-3 a 1.33,1.33 0 0 0 -0.38,0 c -0.06,0.89 0,1.91 -0.09,2.78 a 12.31,12.31 0 0 1 -2.25,-0.23 8.55,8.55 0 0 1 -2.25,-0.56 c -0.46,-0.23 -0.9,-0.64 -0.52,-1.17 a 3,3 0 0 1 1.2,-0.62 c 0.68,-0.19 1.52,-0.36 2.22,-0.49 2,-0.35 4.14,-0.66 6.34,-0.83 1.46,-0.11 2.86,-0.16 4.36,-0.22 1,0 2,0 3.3,0 2.41,0.08 4.31,0.08 6.51,0.24 1.78,0.13 3.33,0.29 5.06,0.53 a 24.65,24.65 0 0 1 3.38,0.65 6.85,6.85 0 0 1 1.27,0.44 1.19,1.19 0 0 1 0.5,0.47 0.69,0.69 0 0 1 -0.41,0.7 3.31,3.31 0 0 1 -1.45,0.38"
     id="path166"
     style="fill:#ffffff;fill-opacity:1"
     inkscape:connector-curvature="0" />
  <path
     class="cls-1"
     d="m 174.08,27.38 c 0.71,0.2 1.55,0.38 1.72,0.93 a 0.55,0.55 0 0 1 -0.15,0.59 3.2,3.2 0 0 0 -0.16,-0.4 1,1 0 0 0 -0.33,-0.33 7.36,7.36 0 0 0 -1.06,-0.44 c 0,-0.21 0,-0.15 0,-0.35"
     id="path168"
     style="fill:#ffffff;fill-opacity:1"
     inkscape:connector-curvature="0" />
  <path
     class="cls-1"
     d="m 146.18,8.3 h -0.27 a 1.62,1.62 0 0 1 1.34,1.68 1.52,1.52 0 0 1 -1.25,1.64 1,1 0 0 0 0.18,0 1.69,1.69 0 1 0 0,-3.38"
     id="path170"
     style="fill:#ffffff;fill-opacity:1"
     inkscape:connector-curvature="0" />
  <path
     class="cls-1"
     d="m 144,4.51 a 1.37,1.37 0 0 0 -0.27,0 1.62,1.62 0 0 1 1.34,1.68 1.52,1.52 0 0 1 -1.25,1.64 1.08,1.08 0 0 0 0.18,0 1.69,1.69 0 1 0 0,-3.38"
     id="path172"
     style="fill:#ffffff;fill-opacity:1"
     inkscape:connector-curvature="0" />
  <path
     class="cls-1"
     d="m 170.33,4.22 h -0.26 a 1.62,1.62 0 0 1 1.34,1.68 1.51,1.51 0 0 1 -1.25,1.64 0.9,0.9 0 0 0 0.18,0 1.69,1.69 0 1 0 0,-3.38"
     id="path174"
     style="fill:#ffffff;fill-opacity:1"
     inkscape:connector-curvature="0" />
  <path
     class="cls-1"
     d="m 168.22,7.8 a 1.18,1.18 0 0 0 -0.27,0 1.61,1.61 0 0 1 1.34,1.67 1.51,1.51 0 0 1 -1.24,1.65 0.94,0.94 0 0 0 0.18,0 1.69,1.69 0 1 0 0,-3.38"
     id="path176"
     style="fill:#ffffff;fill-opacity:1"
     inkscape:connector-curvature="0" />
  <path
     class="cls-1"
     d="m 142.9,8.94 0.45,0.29 a 2.15,2.15 0 0 0 0.2,1.89 l 0.05,0.1 a 2.56,2.56 0 0 1 -0.85,-1.15 2.45,2.45 0 0 1 -0.1,-1.2 c 0,-0.21 0.24,0.07 0.24,0.07"
     id="path178"
     style="fill:#ffffff;fill-opacity:1"
     inkscape:connector-curvature="0" />
  <path
     class="cls-1"
     d="m 185.16,6.49 a 2.48,2.48 0 0 0 -3.58,-1.06 3.11,3.11 0 0 0 -2.94,-1.14 0.72,0.72 0 0 0 0.27,0.53 c 0.5,0.39 0.18,1.24 0.12,1.87 -1.24,-0.12 -2.1,0.49 -1.92,1.76 a 1.19,1.19 0 0 0 -0.88,1.18 3.4,3.4 0 0 1 -1.75,0 4.69,4.69 0 0 0 0.77,2.41 1.81,1.81 0 0 0 -0.82,1.58 3.28,3.28 0 0 0 0.53,1.4 1.74,1.74 0 0 0 1.51,0.68 0.59,0.59 0 0 1 0.5,-0.73 0.61,0.61 0 0 1 0.36,0.73 4.9,4.9 0 0 1 -0.8,2.22 c -0.53,0.8 -1.45,1.52 -2.25,0.93 -0.34,-0.18 -0.14,-1.26 0.21,-1.84 0,0 -0.15,-0.5 -0.13,-0.61 a 16.06,16.06 0 0 0 -2,-0.38 3.35,3.35 0 0 1 -0.59,1.55 1.45,1.45 0 0 1 -0.85,0.53 0.74,0.74 0 0 1 -0.82,-0.84 1.27,1.27 0 0 1 0.92,-1.43 2.45,2.45 0 0 1 1.1,0.35 1.67,1.67 0 0 0 0.15,-2 2.11,2.11 0 0 0 -1.59,-1 2.33,2.33 0 0 0 0.11,-0.57 2.52,2.52 0 0 0 2.79,-1.14 c 0.56,0.11 0.87,-0.42 0.79,-1 a 1.69,1.69 0 0 1 -0.4,-0.37 2.29,2.29 0 0 0 -1.13,-2.1 3.15,3.15 0 0 0 0.45,-2.22 2.94,2.94 0 0 0 -1.45,-1.9 1.7,1.7 0 0 0 0.09,-0.42 1.23,1.23 0 0 0 -1.37,-0.41 c -0.15,0.11 -0.09,0.34 -0.26,0.48 -1.92,0 -2.83,1.7 -2.34,3.56 a 3.62,3.62 0 0 0 -1.57,0.78 2.82,2.82 0 0 0 -0.68,2.26 3.53,3.53 0 0 0 0.33,0.88 3.06,3.06 0 0 0 1.26,1.26 4.86,4.86 0 0 0 1.42,0.26 2.52,2.52 0 0 1 -0.15,0.67 1.4,1.4 0 0 0 -2.1,1.46 1.46,1.46 0 0 0 0.35,0.67 c 0.34,0.13 0.26,-0.22 0.57,-0.23 0.52,0 0.42,0.73 0.23,1.11 a 1.92,1.92 0 0 1 -1.82,1.01 c -1.06,-0.06 -1.16,-1.09 -1,-2.23 a 2.39,2.39 0 0 1 -0.11,-0.42 c 0,0 -1.12,-0.15 -2.14,-0.19 0,1.07 -0.36,2.35 -1.36,2.42 -1,0.07 -2.11,-1.21 -2.25,-2.49 -0.06,-0.63 -0.26,-2.4 0.54,-2 a 0.75,0.75 0 0 1 -0.35,0.53 c -0.09,0.07 -0.11,0.15 0.15,0.46 a 2.32,2.32 0 0 0 2,0.79 8.78,8.78 0 0 1 3.4,-3.84 3.79,3.79 0 0 1 0.06,-1 1.83,1.83 0 0 0 -0.62,-0.59 0.84,0.84 0 0 1 -1.15,-0.11 c 0.13,-0.45 -0.12,-1 0,-1.26 a 2.62,2.62 0 0 0 -2.65,-0.64 1.45,1.45 0 0 1 1.15,-0.47 0.92,0.92 0 0 0 -0.65,-1.14 2.21,2.21 0 0 0 0.56,-1.5 c 0,-0.11 0.18,-0.08 0.14,-0.23 a 1,1 0 0 0 -0.5,-0.44 3.36,3.36 0 0 1 -1.37,0.14 c -0.2,-1.23 -1,-1.59 -1.72,-2.3 A 3.49,3.49 0 0 0 157.14,0 a 4.81,4.81 0 0 0 -0.5,0.73 c -0.38,0.44 -1.06,0.68 -1.41,1.07 a 1.79,1.79 0 0 0 -0.36,0.84 1.87,1.87 0 0 1 0,0.59 12.43,12.43 0 0 1 -1.77,-0.12 3.74,3.74 0 0 0 0.59,2 1,1 0 0 0 -0.65,0.79 1.21,1.21 0 0 0 0,0.48 c 0,0.06 0.09,0 0.22,0 a 1.26,1.26 0 0 1 1.15,0.59 7.6,7.6 0 0 0 -1.44,-0.26 c -0.41,0 -0.77,0.22 -1.16,0.23 a 2,2 0 0 0 -0.16,1.52 1.52,1.52 0 0 1 -1.07,0.56 c -0.18,0 -0.27,-0.18 -0.42,-0.18 a 2,2 0 0 0 0,1.9 1.62,1.62 0 0 0 1.53,1.14 c 0,0.15 0,0.31 0,0.47 a 2.73,2.73 0 0 0 1,1.67 2.29,2.29 0 0 0 2.75,-0.71 1.25,1.25 0 0 1 -0.36,-0.52 0.31,0.31 0 0 1 0.27,-0.36 0.48,0.48 0 0 1 0.4,0.34 3,3 0 0 1 0.05,1.19 5.1,5.1 0 0 1 -0.29,1.2 5.3,5.3 0 0 1 -0.62,1.09 1.52,1.52 0 0 1 -2.09,0.36 2.77,2.77 0 0 1 -0.53,-1.76 l -0.3,-0.44 c 0,0 -1.42,0.13 -2.19,0.23 0.38,1.43 -0.06,2.55 -1.28,2.6 a 1.88,1.88 0 0 1 -1.36,-0.58 c -0.36,-0.39 -0.45,-1.62 0.24,-1.67 a 2.19,2.19 0 0 0 0.59,0.2 c 0.3,-0.14 0.11,-1.09 0,-1.34 a 1.82,1.82 0 0 0 -1.3,-0.87 1.63,1.63 0 0 0 -0.64,0 0.8,0.8 0 0 0 0,-0.28 3.6,3.6 0 0 0 1.16,-0.05 2.65,2.65 0 0 0 1.77,-2 2.77,2.77 0 0 0 -2.13,-3.22 4.14,4.14 0 0 0 0.09,-1.37 3.19,3.19 0 0 0 -1.07,-1.7 3,3 0 0 0 -2,-0.7 0.85,0.85 0 0 0 -1.06,-0.3 0.89,0.89 0 0 0 -0.18,0.65 2.2,2.2 0 0 0 -1,0.85 c -0.06,0.09 -0.13,0.21 -0.19,0.29 a 2.57,2.57 0 0 0 0.31,2.9 2.38,2.38 0 0 0 -0.77,2.19 c 0,0 -0.37,0.21 -0.41,0.26 a 0.39,0.39 0 0 0 -0.1,0.33 1.07,1.07 0 0 0 0.35,0.78 0.69,0.69 0 0 0 0.31,0.09 l 0.33,-0.06 a 3.07,3.07 0 0 0 2.57,1 1.53,1.53 0 0 1 0,0.7 1.49,1.49 0 0 0 -1.83,1.62 2.64,2.64 0 0 0 0.59,1.17 1.36,1.36 0 0 1 1.16,-0.29 0.8,0.8 0 0 1 0.71,0.61 2.26,2.26 0 0 1 -0.21,1.2 1.08,1.08 0 0 1 -1.22,0.28 1.26,1.26 0 0 1 -0.45,-0.44 5.09,5.09 0 0 1 -0.38,-1.12 c -0.11,-0.08 -0.43,-0.22 -0.6,-0.36 0,0 -0.53,0.1 -0.85,0.2 a 5.06,5.06 0 0 0 -0.86,0.32 3.58,3.58 0 0 1 0.32,1.9 c -0.33,1 -1.69,0.33 -2.07,-0.14 a 4.32,4.32 0 0 1 -0.89,-2.37 0.75,0.75 0 0 1 0.51,-0.85 2.42,2.42 0 0 0 0.27,0.8 2.22,2.22 0 0 0 1.83,-1.27 1.74,1.74 0 0 0 -0.63,-2.42 c 0.59,-0.41 0.43,-1.31 0.87,-1.86 a 3,3 0 0 0 -0.5,-0.53 8.14,8.14 0 0 1 -1.37,-0.05 1.13,1.13 0 0 0 -1,-1.14 1.52,1.52 0 0 0 -2,-1.71 6.53,6.53 0 0 0 0.12,-1.64 0.82,0.82 0 0 0 0.36,-0.3 0.71,0.71 0 0 0 -0.54,-0.46 3.13,3.13 0 0 0 -2.22,0.64 1.06,1.06 0 0 1 -0.5,0.49 1.41,1.41 0 0 1 -0.35,-0.18 2.91,2.91 0 0 0 -0.48,-0.22 c -1.93,-0.2 -2.64,1.52 -1.72,3 a 1.58,1.58 0 0 1 0.8,-0.42 1.74,1.74 0 0 1 0.83,0.12 c 0.75,0.35 0.17,1.85 0.2,2.69 a 9.4,9.4 0 0 0 0.45,1.34 c 0.06,0.49 -0.1,0.93 -0.06,1.32 a 3.42,3.42 0 0 0 1.66,2.69 c 0.16,1.7 1.32,2.66 2.18,3.72 a 2.31,2.31 0 0 1 0.77,2.25 c -0.05,0.15 -0.19,0.37 -0.25,0.54 a 1.15,1.15 0 0 0 0.08,0.8 1.67,1.67 0 0 0 1.09,1.17 3.11,3.11 0 0 1 -0.06,0.36 c -0.09,1.08 0.57,1.86 0.41,2.75 a 1.7,1.7 0 0 0 -0.14,2.4 3.82,3.82 0 0 0 1.68,1 16.87,16.87 0 0 0 3.08,0.76 c 0.67,0.11 1.32,0.19 2,0.3 a 88.22,88.22 0 0 0 11,0.76 80.89,80.89 0 0 0 8.14,-0.15 68.55,68.55 0 0 0 10.18,-1.17 7.44,7.44 0 0 0 3.46,-1.43 1.24,1.24 0 0 0 0.3,-0.7 c 0.15,-1.1 -0.92,-1.13 -0.68,-2.17 0.67,-0.63 -0.33,-2.68 1.09,-2.85 0.45,-0.17 0.59,-1.24 0.37,-1.86 -0.22,-0.62 -0.56,-0.52 -0.57,-0.76 -0.05,-1 0.76,-1.77 1.33,-2.46 0.82,-1 1.63,-1.74 1.68,-3.33 a 2,2 0 0 0 1.37,-1.6 3.81,3.81 0 0 0 0.13,-1.15 3.55,3.55 0 0 1 0,-1.06 c 0,-0.11 0.13,-0.21 0.18,-0.36 0.39,-1.29 -0.34,-3.19 0.56,-3.89 a 2.71,2.71 0 0 1 1.77,0.18 2.9,2.9 0 0 0 0.14,-1.5 m -11.9,3.89 c -0.82,2.53 -3.35,1.34 -3.35,1.34 a 2.64,2.64 0 0 0 0.75,-3.12 2,2 0 0 0 1.47,-0.64 c 0,0 1.59,1 1.13,2.43 m -4.51,-6 a 2.16,2.16 0 0 1 0.75,-0.46 2.4,2.4 0 0 1 1.63,-0.06 2,2 0 0 1 1.17,1.21 2.16,2.16 0 0 1 -2,3 3.08,3.08 0 0 0 -1.89,-1.08 0.61,0.61 0 0 0 -0.15,-0.41 2.28,2.28 0 0 1 0.48,-2.2 m -2.1,6.56 a 2.37,2.37 0 0 1 -0.15,-2.75 2.05,2.05 0 0 1 1.22,-0.74 2.19,2.19 0 0 1 2.39,1.2 2.52,2.52 0 0 1 0.13,1.42 2.14,2.14 0 0 1 -3.58,0.87 m -6.64,1.51 a 0.9,0.9 0 0 0 -0.51,-1 1,1 0 0 0 -0.79,0.11 1.45,1.45 0 0 0 -0.44,0.51 3,3 0 0 0 -0.22,1.27 5.87,5.87 0 0 0 0.17,1.49 4.08,4.08 0 0 0 0.83,1.71 2.93,2.93 0 0 0 1.5,0.8 c 1.43,0.17 2.26,-1.13 2.29,-2.62 a 2.58,2.58 0 0 1 1.07,0.09 c -0.27,1.86 0.86,3.21 2.66,2.84 a 3.39,3.39 0 0 0 0.83,-0.38 2.49,2.49 0 0 0 0.86,-2.52 1.16,1.16 0 0 0 -1.3,-0.58 c -0.11,-0.77 0.9,-1 1.42,-0.65 a 1.88,1.88 0 0 0 0.35,0.42 6.38,6.38 0 0 0 0.48,-1.73 c 0.13,-0.41 0.3,-0.37 0.71,-0.21 a 11.11,11.11 0 0 0 -0.18,1.9 0.57,0.57 0 0 0 0.38,-0.23 1.39,1.39 0 0 1 1.36,0.32 1.06,1.06 0 0 1 0.06,1.11 6,6 0 0 0 -0.74,-0.23 c -1.87,-0.15 -2.12,2.69 -0.74,3.37 a 1.76,1.76 0 0 0 1.75,-0.18 4.76,4.76 0 0 0 0.95,-1.7 8.76,8.76 0 0 1 0.89,0.14 7.2,7.2 0 0 0 -0.24,1.79 1.44,1.44 0 0 0 2,1.06 c 1.2,-0.44 2.17,-2.18 2.34,-3.57 a 1.35,1.35 0 0 0 -1.18,-1.7 2.24,2.24 0 0 0 -0.74,0.35 1.13,1.13 0 0 1 1.92,-0.79 2.76,2.76 0 0 1 0.51,0.76 3.91,3.91 0 0 1 0,1.87 6,6 0 0 1 -2,3.33 4.3,4.3 0 0 1 -1.3,0.62 1.87,1.87 0 0 1 -2.13,-1.79 1,1 0 0 0 -0.44,-0.14 2.4,2.4 0 0 0 -0.38,0.44 1.43,1.43 0 0 1 -1,0.53 c -1.56,-0.1 -2.23,-0.75 -2.37,-2.12 a 2.54,2.54 0 0 1 -0.41,-0.05 6,6 0 0 1 -0.68,0.88 3.1,3.1 0 0 1 -2.19,0.59 2,2 0 0 1 -1.9,-1.79 4.19,4.19 0 0 1 -0.47,0 1.87,1.87 0 0 1 -0.3,0.65 3.06,3.06 0 0 1 -0.65,0.44 3.19,3.19 0 0 1 -2.36,0.05 3.57,3.57 0 0 1 -2,-2 7.82,7.82 0 0 1 -0.29,-3.4 2,2 0 0 1 2.36,-1.7 1.17,1.17 0 0 1 0.91,1.44 0.83,0.83 0 0 1 -0.76,0.7 0.49,0.49 0 0 1 0.11,-0.4 m -6.3,-6.9 a 1.13,1.13 0 0 1 1.24,-0.33 2,2 0 0 0 0.59,0.15 2.91,2.91 0 0 0 -1.42,-0.76 1.34,1.34 0 0 1 -0.48,-1.15 3.12,3.12 0 0 1 2.31,0.53 0.12,0.12 0 0 0 0.1,-0.08 0.75,0.75 0 0 0 -0.4,-0.56 1.26,1.26 0 0 1 0,-1.46 c 0.33,-0.34 1.11,-0.58 1.42,-0.91 a 0.21,0.21 0 0 1 0.14,-0.08 1.18,1.18 0 0 1 0.53,0.27 4,4 0 0 1 0.54,0.31 1.47,1.47 0 0 1 0.56,0.79 c 0.12,0.67 -0.42,0.91 -0.66,1.39 a 0.18,0.18 0 0 0 0.11,0.16 3.28,3.28 0 0 1 2.33,-0.56 1.51,1.51 0 0 1 -0.26,0.88 l -0.15,0.15 -0.23,0.2 c -0.39,0.27 -1.06,0.21 -1.27,0.67 a 0.23,0.23 0 0 1 0,0.05 c 0.32,-0.28 1.57,-0.42 1.9,0.14 a 2.83,2.83 0 0 0 -0.95,0.54 c -0.7,0.81 -0.68,2.16 -0.86,3.34 0,-0.28 0.06,-0.59 0,-0.83 a 6.87,6.87 0 0 0 -0.65,-2 c -0.3,-0.69 -0.63,-1.29 -1,-2.23 a 2.84,2.84 0 0 0 -0.16,0.51 15.92,15.92 0 0 1 -0.66,1.61 7,7 0 0 0 -0.86,2.76 3.43,3.43 0 0 0 0,0.47 c -0.38,-1.61 -0.28,-3.55 -1.84,-4 m 4.53,4.38 a 1.13,1.13 0 0 1 -1.84,0.39 c -0.84,-0.75 -0.24,-2.34 0.14,-3.25 a 11.82,11.82 0 0 0 0.69,-1.85 c 0.37,1.49 1.64,3.08 1,4.71 m -6,1.67 c 0.05,-0.31 0.27,-0.51 0.36,-0.82 a 0.7,0.7 0 0 0 -0.53,0.06 1.23,1.23 0 0 1 -1.42,-1.44 c 1,0 1.32,-0.85 2.16,-1 0.29,0 0.45,0 0.68,0 a 1.11,1.11 0 0 0 -1.25,-0.26 1.07,1.07 0 0 1 0,-0.88 2.25,2.25 0 0 1 1.87,-0.06 2.63,2.63 0 0 1 0.95,1.9 1.75,1.75 0 0 0 -1.4,-0.53 c -0.06,0.08 0.16,0.18 0.38,0.24 a 2.22,2.22 0 0 1 1,0.7 4.44,4.44 0 0 0 -1.8,0.14 c -0.32,0.09 -0.73,0.24 -0.68,0.53 a 3.24,3.24 0 0 1 2.13,-0.32 c 0.85,0.2 1.45,1 2.25,1.08 a 1.79,1.79 0 0 0 1.45,-0.58 c 0.13,-0.09 0.35,-0.13 0.53,-0.24 a 2.45,2.45 0 0 1 1.24,-0.44 4.4,4.4 0 0 1 1.65,0.35 1,1 0 0 0 -0.76,-0.56 5.13,5.13 0 0 0 -1.75,-0.05 1.84,1.84 0 0 1 0.95,-0.73 0.51,0.51 0 0 0 0.38,-0.24 1.54,1.54 0 0 0 -1.35,0.53 2,2 0 0 1 1.68,-2.14 0.91,0.91 0 0 1 1.09,1.14 1.36,1.36 0 0 0 -1.24,0.23 1.69,1.69 0 0 0 0.65,0.06 c 0.73,0.13 1.2,0.81 1.89,1 h 0.32 a 1.19,1.19 0 0 1 -1.38,1.44 c -0.2,0 -0.44,-0.24 -0.6,0 a 1.8,1.8 0 0 1 0.42,1.4 1.52,1.52 0 0 1 -1.72,0.9 1.41,1.41 0 0 0 0.65,-1.46 1.74,1.74 0 0 0 -1.45,-1.32 3,3 0 0 0 -0.59,0 1.28,1.28 0 0 0 -0.27,0.09 l -0.35,0.12 c -0.11,0 -0.18,0.12 -0.31,0.19 a 1.36,1.36 0 0 0 -0.49,0.42 c 0,0.07 -0.08,0.14 -0.12,0.21 a 1.51,1.51 0 0 0 -0.26,0.69 4.71,4.71 0 0 0 -0.59,-1 2.39,2.39 0 0 0 -0.3,-0.17 2.72,2.72 0 0 0 -0.28,-0.18 2.08,2.08 0 0 0 -2.36,0.26 1.53,1.53 0 0 0 0.32,2.26 1.41,1.41 0 0 1 -1.74,-1.55 M 141.8,6.08 a 2.08,2.08 0 0 1 0.95,-1.61 2.49,2.49 0 0 1 0.64,-0.25 2.43,2.43 0 0 1 1.24,0 1.92,1.92 0 0 1 0.54,0.26 2.5,2.5 0 0 1 0.47,0.4 2.25,2.25 0 0 1 0.37,0.53 2.09,2.09 0 0 1 0.16,1.07 1.25,1.25 0 0 1 -0.4,0.91 5.63,5.63 0 0 1 -0.74,0.32 3.87,3.87 0 0 0 -0.75,0.46 0.59,0.59 0 0 1 -0.26,0.24 C 142.83,8.18 141.73,7.48 141.8,6.09 m 1.37,5.5 a 1.87,1.87 0 0 1 -1.28,-0.67 2,2 0 0 1 -0.33,-1.52 1.24,1.24 0 0 1 0.8,-1.08 4.62,4.62 0 0 1 0.91,0.47 c 0.13,0.07 0.29,0.18 0.44,0.26 a 1.87,1.87 0 0 0 -0.13,0.55 3,3 0 0 0 0.15,1.17 5.45,5.45 0 0 0 0.4,0.82 2.17,2.17 0 0 1 -1,0 m 0.94,-2.16 a 2,2 0 0 1 3,-1.32 2.38,2.38 0 0 1 1,0.89 2.21,2.21 0 0 1 0.21,1.77 1.82,1.82 0 0 1 -1.31,1.17 4.5,4.5 0 0 1 -0.67,0 2.09,2.09 0 0 1 -2.19,-2.54 m -6.15,4.68 c -1.28,-0.08 -1.18,1.56 -0.89,2.54 a 5.6,5.6 0 0 0 0.74,1.46 2.49,2.49 0 0 0 2,1.34 c 1.32,0 1.48,-1.61 1,-2.81 a 3.54,3.54 0 0 1 1,-0.26 4.81,4.81 0 0 0 0.95,1.7 c 1,0.64 2.47,0.28 2.58,-0.94 a 2.42,2.42 0 0 0 -0.66,-1.93 2,2 0 0 0 -1.78,-0.09 c -0.53,-0.95 0.52,-1.78 1.54,-1.38 a 0.5,0.5 0 0 0 0.33,0.21 c 0.19,-0.62 -0.25,-1.43 -0.15,-2 0.3,0 0.43,0.25 0.74,0.29 a 15,15 0 0 0 0.33,1.67 c 0.25,-0.12 0.29,-0.38 0.57,-0.5 a 0.93,0.93 0 0 1 1.3,0.76 1.13,1.13 0 0 0 -1.15,0.35 2.34,2.34 0 0 0 2.21,3.16 c 1.46,-0.08 2.09,-1.25 1.81,-2.87 a 5.08,5.08 0 0 1 1.09,-0.08 3.32,3.32 0 0 0 0.92,2.07 2.17,2.17 0 0 0 1.15,0.5 c 2,0.2 3.21,-2.54 2.81,-4.68 a 1.87,1.87 0 0 0 -0.46,-1 1,1 0 0 0 -1,-0.15 0.66,0.66 0 0 0 -0.44,0.55 1.13,1.13 0 0 0 0,0.4 2,2 0 0 0 0.09,0.43 c -0.88,0 -1,-1.24 -0.51,-1.76 0.66,-0.71 2.12,-0.27 2.58,0.32 a 5,5 0 0 1 0.53,3 5.45,5.45 0 0 1 -0.41,1.49 3.4,3.4 0 0 1 -3.2,2.06 3,3 0 0 1 -1.57,-0.62 1.85,1.85 0 0 1 -0.47,-0.64 2.6,2.6 0 0 1 -0.47,0 c -0.09,1.33 -1.62,2 -3,1.62 a 2.82,2.82 0 0 1 -1.46,-0.84 c -0.05,-0.06 -0.15,-0.25 -0.25,-0.38 l -0.29,0.08 -0.07,0.26 a 2,2 0 0 1 -1.89,1.5 3.3,3.3 0 0 1 -1.22,-0.18 3,3 0 0 1 -0.7,-0.52 1,1 0 0 0 -0.39,0.1 1.84,1.84 0 0 1 -2.69,1.5 4,4 0 0 1 -1.13,-0.8 8.36,8.36 0 0 1 -1.21,-1.78 3.6,3.6 0 0 1 -0.36,-3.16 1.61,1.61 0 0 1 0.42,-0.59 c 0.68,-0.43 2,-0.16 1.92,0.82 a 1.48,1.48 0 0 0 -0.74,-0.38 m -4.14,0.76 a 1.4,1.4 0 0 1 -0.83,-0.7 c -0.72,-1.34 0.27,-3.28 0.44,-4.48 0.56,0.93 1.46,1.81 1.6,3.17 a 2.87,2.87 0 0 1 -0.38,1.67 0.86,0.86 0 0 1 -0.83,0.35 m 4.32,8.94 a 1.11,1.11 0 0 1 1.68,0.32 4.87,4.87 0 0 1 -0.06,2.49 2.71,2.71 0 0 1 -0.95,0.47 1,1 0 0 1 0,-0.47 c 0.11,-0.24 0.55,-0.26 0.68,-0.53 a 1.62,1.62 0 0 0 0,-0.76 c -0.08,-0.47 0.05,-1.11 -0.39,-1.32 a 2.72,2.72 0 0 0 -0.82,0.18 0.9,0.9 0 0 0 -0.15,-0.38 m 6,0.67 a 4.18,4.18 0 0 1 -0.8,-0.62 c -0.31,-0.24 -0.25,-0.16 0,-0.56 a 5.9,5.9 0 0 1 0.77,-1.23 0.06,0.06 0 0 1 0.07,0 c -0.13,0.71 0.07,1.54 0,2.37 m -3.76,1.47 a 5.41,5.41 0 0 1 0,-1 c 0.54,0.35 1,0.83 1.51,1.21 a 4,4 0 0 1 -0.81,0.23 c -0.27,0 -0.45,-0.41 -0.7,-0.47 m 0.2,0.61 a 0.63,0.63 0 0 1 -0.3,0.09 0.51,0.51 0 0 0 0.09,-0.26 0.39,0.39 0 0 1 0.2,0.18 m 0.74,-1.29 a 2,2 0 0 1 -0.32,-0.21 c 0.1,-0.23 0.24,-0.42 0.35,-0.64 0.6,0.49 1.23,0.95 1.78,1.5 -0.33,0 -0.54,0.18 -0.79,0.14 a 3.87,3.87 0 0 1 -1,-0.79 m 1.13,-0.46 c 0.11,-0.28 0.29,-0.5 0.41,-0.77 0.45,0.29 0.82,0.66 1.24,1 a 2,2 0 0 0 0.21,0.68 2.23,2.23 0 0 0 -0.56,0.09 c -0.49,-0.26 -0.84,-0.69 -1.3,-1 m 0.58,-1.85 a 13.8,13.8 0 0 1 -0.88,1.58 6.57,6.57 0 0 0 -0.59,-0.44 c 0.23,-0.62 0.64,-1 0.89,-1.64 0.33,-0.11 0.72,-0.14 1,-0.26 a 1.86,1.86 0 0 1 -0.45,0.76 m -2.33,1.82 c -1,-0.34 0.36,-1.42 0.44,-2 0.25,-0.1 0.55,-0.14 0.8,-0.24 0,0 0,0 0,0 -0.41,0.74 -0.85,1.44 -1.27,2.17 m -0.56,-1.05 a 0.75,0.75 0 0 0 -0.45,-0.41 5.58,5.58 0 0 1 0.83,-0.32 c 0,0 0.05,0 0.05,0.06 a 2.27,2.27 0 0 1 -0.44,0.68 m 35.64,6.4 a 16.45,16.45 0 0 1 -4.35,1.14 c -1.51,0.22 -3.23,0.4 -4.79,0.59 -1.56,0.19 -3.41,0.25 -5.09,0.29 -1.68,0.04 -3.3,0.14 -5.06,0.06 -1.76,-0.08 -3.56,-0.09 -5.26,-0.18 -1.7,-0.09 -3.34,-0.23 -5,-0.38 a 24.75,24.75 0 0 1 -6.87,-1.37 1.74,1.74 0 0 1 -1.3,-1.35 1.87,1.87 0 0 1 1.39,-1.25 14.16,14.16 0 0 1 2,-0.64 c 1.17,-0.32 3,-0.7 4.38,-0.94 a 56.22,56.22 0 0 1 9.65,-0.76 h 0.05 c 0.28,0 0.91,-0.05 1.33,0 2.62,0.13 6,0.12 8.82,0.44 a 62.71,62.71 0 0 1 8.16,1.41 7.72,7.72 0 0 1 2.19,0.84 1.24,1.24 0 0 1 0.74,0.94 1.38,1.38 0 0 1 -1,1.2 m -31.33,-6.88 a 1.06,1.06 0 0 1 0.24,-0.93 5,5 0 0 1 1.48,-0.32 c 0.86,-0.06 0.8,0.59 0.8,1.53 0,0.94 0.1,1.61 -0.3,2 -0.66,0.09 -1.21,0.29 -1.92,0.32 -0.43,-0.47 -0.27,-1.69 -0.3,-2.55 m 2.93,1.38 a 1.41,1.41 0 0 0 0,-0.7 1.5,1.5 0 0 1 0.3,-0.37 c 0,0 0.05,0 0.06,0 a 11,11 0 0 1 0.95,0.79 8,8 0 0 1 0.89,0.82 c -0.52,0 -0.91,0.11 -1.42,0.11 a 6,6 0 0 1 -0.74,-0.67 m 0.26,0.73 c 0,0.12 -0.24,0 -0.36,0.06 a 0.61,0.61 0 0 0 0.06,-0.3 c 0.17,0 0.14,0.22 0.3,0.23 m 1.15,-1.31 c 0.25,-0.21 0.41,-0.53 0.65,-0.76 a 23.57,23.57 0 0 1 2,1.69 13.23,13.23 0 0 1 -1.36,0.15 c -0.47,-0.34 -0.9,-0.71 -1.33,-1.08 m 2,-0.12 a 2.53,2.53 0 0 1 0.48,-0.62 0.06,0.06 0 0 1 0.05,0 8.17,8.17 0 0 1 0.94,0.79 5.19,5.19 0 0 1 0.86,0.82 8.46,8.46 0 0 0 -1.12,0 c -0.37,-0.38 -0.85,-0.67 -1.22,-1.05 m 1.75,0 c 0.17,-0.24 0.35,-0.46 0.53,-0.67 a 9.07,9.07 0 0 1 1.36,1.11 0.9,0.9 0 0 0 0.15,0.5 4.81,4.81 0 0 1 -0.77,0.06 c -0.51,-0.24 -0.74,-0.76 -1.27,-1 m 1.86,-0.18 a 1.11,1.11 0 0 1 -0.5,-0.35 4.22,4.22 0 0 1 -0.53,-0.44 c 0.3,-0.43 0.72,-0.75 1,-1.2 0.1,0.53 0,1.33 0,2 m -1.47,-0.87 a 5.1,5.1 0 0 1 -0.39,0.49 0.64,0.64 0 0 1 -0.19,0.22 0.33,0.33 0 0 1 -0.26,-0.12 l -0.33,-0.21 c -0.18,-0.1 -0.28,-0.17 -0.12,-0.37 0.16,-0.2 0.42,-0.48 0.63,-0.71 0.21,-0.23 0.25,-0.28 0.37,-0.42 a 1.9,1.9 0 0 1 0.35,-0.41 h 1.3 c -0.28,0.48 -1,1.05 -1.36,1.56 m -0.54,-1.44 c -0.64,0.73 -1.24,1.51 -1.92,2.2 a 3.43,3.43 0 0 1 -0.79,-0.64 c 0.52,-0.46 0.88,-1.06 1.39,-1.53 0.44,0 0.92,0 1.33,-0.09 a 0,0 0 0 0 0,0.06 m -2.4,0.65 c -0.39,0.47 -0.8,0.93 -1.27,1.46 a 3.06,3.06 0 0 1 -0.24,0.29 3.31,3.31 0 0 1 -0.62,-0.53 c 0.43,-0.6 1,-1.1 1.43,-1.67 0.32,-0.08 0.78,0 1.12,-0.12 a 1,1 0 0 1 -0.42,0.56 m -2.66,1.17 a 3,3 0 0 0 -0.21,-1.38 l 1.59,-0.18 a 14.71,14.71 0 0 1 -1.39,1.55 m 7.43,0.06 a 4.6,4.6 0 0 1 0.21,-1.78 0.77,0.77 0 0 1 0.5,-0.2 18.9,18.9 0 0 1 2.25,0 10.67,10.67 0 0 1 2.19,0.2 7.57,7.57 0 0 1 0.23,2.66 1,1 0 0 1 -0.3,0.67 2.74,2.74 0 0 1 -1.1,0.06 c -0.75,0 -1.45,-0.06 -2.31,-0.06 a 1.89,1.89 0 0 1 -1.56,-0.32 2.63,2.63 0 0 1 -0.12,-1.23 m 8.66,0.7 a 5.89,5.89 0 0 1 0.71,-0.56 c 0.64,0.61 1.29,1.21 1.89,1.84 a 12.62,12.62 0 0 1 -1.45,-0.09 c -0.3,-0.48 -0.82,-0.75 -1.15,-1.2 m 0.51,1.11 a 8.53,8.53 0 0 1 -1.24,-0.06 c -0.44,-0.33 -0.8,-0.73 -1.21,-1.09 0.25,-0.17 0.45,-0.4 0.68,-0.58 a 22.15,22.15 0 0 1 1.78,1.73 m 1.42,-1 a 2.43,2.43 0 0 1 0.62,-0.61 8.46,8.46 0 0 1 1.56,1.4 1.33,1.33 0 0 0 0.12,0.62 1.64,1.64 0 0 1 -1.44,-0.59 5.36,5.36 0 0 0 -0.86,-0.82 m 1,-0.93 c 0.35,-0.34 0.76,-0.61 1.1,-1 0.1,0.63 0,1.37 0.08,2.05 a 11.74,11.74 0 0 1 -1.18,-1.08 m -1.33,0.58 c -0.23,-0.17 -0.39,-0.41 -0.62,-0.58 0.5,-0.46 1,-0.91 1.54,-1.34 0.36,0 0.81,0.12 1.12,0.11 a 27,27 0 0 1 -2,1.81 m -1.87,0 a 3.25,3.25 0 0 1 -0.68,-0.64 c 0.58,-0.47 1.13,-1 1.66,-1.47 a 6.56,6.56 0 0 1 1.21,0.12 c -0.67,0.73 -1.47,1.32 -2.19,2 m -2,-0.06 a 1.87,1.87 0 0 1 -0.56,-0.55 c 0.64,-0.52 1.22,-1.09 1.86,-1.61 a 4.87,4.87 0 0 1 1.07,0.06 c -0.73,0.77 -1.57,1.41 -2.37,2.1 m -0.65,-1.08 a 3.64,3.64 0 0 0 -0.18,-1.17 11.86,11.86 0 0 1 1.47,0 8.23,8.23 0 0 1 -1.3,1.14 m 0,1.08 a 9.7,9.7 0 0 1 1.41,1.32 c -0.48,0.09 -1.13,-0.08 -1.59,0 a 2.94,2.94 0 0 0 0.18,-1.29 m 10,2.26 a 11.05,11.05 0 0 1 -2.34,-0.44 1.87,1.87 0 0 1 -0.3,-1.35 c 0,-0.73 -0.28,-1.95 0.36,-2.08 a 2.61,2.61 0 0 1 0.59,0 3.32,3.32 0 0 1 2,0.65 c -0.06,1 0.43,2.67 -0.27,3.22 m 4.09,-1.49 a 0.19,0.19 0 0 1 -0.12,-0.18 0.13,0.13 0 0 0 0.12,-0.06 0.53,0.53 0 0 1 0,0.24 m -1.45,0.23 a 5.61,5.61 0 0 1 -0.35,-0.7 c 0.35,-0.26 0.78,-0.46 1.12,-0.73 a 5.62,5.62 0 0 1 0.92,0.29 12.55,12.55 0 0 1 -1.69,1.14 m 0.27,0.38 a 5.26,5.26 0 0 1 0.71,-0.55 c 0.53,0.36 0.24,1.53 0.27,2.22 a 15.52,15.52 0 0 1 -1,-1.67 m 0.48,1.64 c -0.23,0 -0.6,-0.12 -0.89,-0.15 -0.4,-0.62 -0.73,-1.3 -1.12,-1.94 a 1.71,1.71 0 0 1 0.59,-0.41 c 0.52,0.79 1,1.65 1.43,2.49 m -2.31,-2.4 a 2.71,2.71 0 0 1 -0.3,-0.56 c 0.46,-0.27 0.87,-0.58 1.3,-0.87 l 0.78,0.2 c -0.53,0.47 -1.21,0.79 -1.78,1.23 m -0.3,-0.94 a 2.52,2.52 0 0 1 0,-0.79 c 0.31,0 0.55,0.13 0.86,0.17 a 5.75,5.75 0 0 1 -0.86,0.62 m 0.06,1.58 a 0.27,0.27 0 0 0 0.15,-0.12 12.59,12.59 0 0 1 0.85,1.48 c -0.44,-0.07 -0.87,-0.16 -1.3,-0.25 a 1.42,1.42 0 0 0 0.3,-1.11 m 4.17,1.81 a 3.09,3.09 0 0 0 0.54,0.26 v 0.38 a 2.05,2.05 0 0 1 -0.95,-0.45 c -0.38,-0.48 -0.19,-2.1 0,-2.66 0.19,-0.56 1.13,-0.3 1.56,-0.09 a 1,1 0 0 0 -0.12,0.36 c -0.37,-0.13 -0.95,-0.3 -1.12,0.08 a 3.34,3.34 0 0 0 0.09,2.11 m 1.48,-3 c -0.75,-0.12 -1.46,-0.44 -2.22,-0.64 a 50.33,50.33 0 0 0 -6.95,-1.5 c -1.67,-0.22 -3.4,-0.39 -5.15,-0.56 -1.75,-0.17 -3.53,-0.1 -5.29,-0.2 a 44.9,44.9 0 0 0 -5.41,0.12 52.93,52.93 0 0 0 -10,1.41 c -0.76,0.2 -1.51,0.38 -2.22,0.62 -0.71,0.24 -1.39,0.52 -2.1,0.67 A 0.72,0.72 0 0 1 137.32,23 c -0.26,-0.83 0.78,-1.09 1.45,-1.32 a 55.93,55.93 0 0 1 11.81,-2.1 c 0.39,0 0.81,0 1.24,-0.07 0.89,0 1.78,-0.09 2.72,-0.11 h 1.48 a 88.21,88.21 0 0 1 9,0.35 59.49,59.49 0 0 1 8,1.29 c 0.75,0.18 1.58,0.47 2.42,0.69 0.84,0.22 1.91,0.44 1.9,1.2 a 0.7,0.7 0 0 1 -0.38,0.56 m 4.59,-10.25 a 3.33,3.33 0 0 1 -0.35,1.12 1.19,1.19 0 0 1 -1,0.55 1.23,1.23 0 0 1 -0.95,-1.17 4.53,4.53 0 0 1 0.8,-2.92 c 0.21,-0.32 0.43,-0.6 0.62,-0.94 a 0.23,0.23 0 0 1 0,-0.09 h 0.06 a 1,1 0 0 1 0.21,0.65 6.71,6.71 0 0 1 0.54,2.8 m 0.88,-6.38 a 2.27,2.27 0 0 0 -0.77,1.55 c -0.09,0.87 0.24,1.78 0.09,2.52 -0.49,-0.5 -0.38,-1.6 -0.77,-2.2 a 2,2 0 0 0 -0.59,1 7.89,7.89 0 0 0 -1.51,3.19 3.1,3.1 0 0 0 1,2.6 3.35,3.35 0 0 1 -0.63,2 c -0.23,0.34 -0.54,0.61 -0.8,0.94 -0.26,0.33 -0.33,0.52 -0.56,0.76 a 4,4 0 0 0 -1.22,2.4 c -6.37,-2.09 -15.23,-2.87 -23.67,-2.49 a 76.4,76.4 0 0 0 -10.23,1.12 41.49,41.49 0 0 0 -5.15,1.35 3.83,3.83 0 0 0 -1.33,-2.43 c -0.69,-1 -1.7,-1.8 -1.83,-3.21 a 0.62,0.62 0 0 1 -0.22,-0.23 2.14,2.14 0 0 0 0.77,-0.88 3.65,3.65 0 0 0 -0.05,-3.11 c -0.23,-0.49 -0.62,-0.91 -0.92,-1.4 a 9,9 0 0 0 -0.89,-1.4 1.16,1.16 0 0 0 -0.26,0.93 10.19,10.19 0 0 1 -0.36,1.14 c -0.59,-1.1 0.26,-3.39 -1,-4 a 2.17,2.17 0 0 0 -1.54,0 c -0.34,-1.57 2.4,-1.71 2.86,-0.58 a 1.61,1.61 0 0 1 1.84,-1.2 2.51,2.51 0 0 0 0,0.9 1.82,1.82 0 0 1 -0.12,0.94 1.18,1.18 0 0 1 -0.32,0.38 1.62,1.62 0 0 0 -0.51,0.85 1,1 0 0 0 0.21,0.06 1.77,1.77 0 0 1 2.22,-0.82 1,1 0 0 1 0.3,1.06 3.6,3.6 0 0 0 -1.19,0.73 0.82,0.82 0 0 0 -0.15,1.06 1.84,1.84 0 0 1 0.42,-0.82 c 0.39,-0.62 2,-0.87 2,0.26 a 1,1 0 0 0 -1.18,0.91 1.08,1.08 0 0 0 0.62,-0.41 c 0.66,-0.3 1.5,0.19 2.28,0.06 a 1.69,1.69 0 0 1 -1,1.58 c -0.31,0 -0.82,-0.18 -0.94,0.23 a 2.74,2.74 0 0 1 1.83,0.52 1.41,1.41 0 0 1 -0.38,2.08 c 0.36,-1.39 -1.5,-2.12 -2.43,-1.29 a 2.54,2.54 0 0 0 -0.71,2.17 5.64,5.64 0 0 0 1.18,2.84 c 0.69,1 1.67,2.2 3.31,2.11 a 2.87,2.87 0 0 0 1.13,-0.3 1.72,1.72 0 0 0 0.65,-0.63 c 0,0 0.3,-0.53 0.27,-0.54 a 3,3 0 0 0 1.81,0.39 4.69,4.69 0 0 0 0.73,-0.08 2.24,2.24 0 0 0 1.85,-1.25 5.71,5.71 0 0 0 0.61,0.35 5,5 0 0 0 1.4,0.37 3.23,3.23 0 0 0 0.73,0 5.26,5.26 0 0 0 1.29,-0.21 3,3 0 0 0 0.79,-0.43 1.58,1.58 0 0 0 0.43,-0.51 2.74,2.74 0 0 0 0.69,0.47 4,4 0 0 0 1.69,0.18 c 2.28,-0.13 3.16,-1.2 3.4,-1.88 a 4,4 0 0 0 0.46,0.57 l 0.48,0.44 a 4.48,4.48 0 0 0 0.53,0.39 2.8,2.8 0 0 0 0.52,0.26 3.48,3.48 0 0 0 0.64,0.18 4.6,4.6 0 0 0 2.3,-0.11 1.69,1.69 0 0 0 0.83,-0.6 3.38,3.38 0 0 0 0.68,0.78 2.78,2.78 0 0 0 0.67,0.3 4.23,4.23 0 0 0 0.65,0.13 6.39,6.39 0 0 0 1,0 2.83,2.83 0 0 0 1.93,-0.76 0.36,0.36 0 0 0 0.17,-0.19 c 0.37,1.1 0.92,1.36 2.12,1.56 a 5.93,5.93 0 0 0 0.86,0.11 2.27,2.27 0 0 0 1.12,-0.38 0.22,0.22 0 0 0 0.07,0.19 1.93,1.93 0 0 0 0.32,0.35 2.53,2.53 0 0 0 1.39,0.64 c 1.39,0.22 2.49,-0.9 3.26,-1.9 a 6.39,6.39 0 0 0 1.18,-2.63 3.52,3.52 0 0 0 -0.39,-2.25 1.66,1.66 0 0 0 -1.71,-0.73 1.37,1.37 0 0 0 -1,1.75 1.27,1.27 0 0 1 -0.86,-1.29 2,2 0 0 1 0.83,-1.26 2.66,2.66 0 0 1 1.47,-0.12 c -0.06,-0.39 -0.52,-0.3 -0.92,-0.3 a 1.73,1.73 0 0 1 -1.09,-1.64 c 1,-0.08 2.17,-0.3 2.81,0.41 0.19,-0.15 0,-0.43 -0.09,-0.53 a 2.19,2.19 0 0 0 -1,-0.38 c -0.29,-0.38 0.15,-0.86 0.65,-0.88 a 3.29,3.29 0 0 1 0.89,0.2 c 0.32,0.21 0.5,0.55 0.82,0.76 A 0.49,0.49 0 0 0 179,9.04 2,2 0 0 0 177.68,8.31 c -0.55,-0.8 0.69,-1.51 1.59,-1.2 a 2.26,2.26 0 0 1 1,0.93 1,1 0 0 0 0.24,-0.09 1.42,1.42 0 0 0 -0.88,-1.06 c -0.42,-0.62 0.12,-1.54 -0.21,-2.2 a 2.17,2.17 0 0 1 1.95,1.29 2.39,2.39 0 0 1 1.18,-0.67 1.89,1.89 0 0 1 1.68,0.84 1,1 0 0 1 0.15,0.48 2.59,2.59 0 0 0 -1.81,0.06"
     id="path180"
     style="fill:#ffffff;fill-opacity:1"
     inkscape:connector-curvature="0" />
  <path
     class="cls-1"
     d="m 171.7,8.13 a 3.58,3.58 0 0 0 -0.31,0.18 1.37,1.37 0 0 1 0.89,1.85 1.51,1.51 0 0 1 -1.56,1.34 0.66,0.66 0 0 0 0.16,0.08 1.71,1.71 0 0 0 2,-1.3 1.76,1.76 0 0 0 -1.21,-2.14"
     id="path182"
     style="fill:#ffffff;fill-opacity:1"
     inkscape:connector-curvature="0" />
  <path
     class="cls-1"
     d="m 159.46,23.22 a 0.71,0.71 0 0 1 -0.77,0.65 h -2.23 a 0.71,0.71 0 0 1 -0.76,-0.65 v -1 a 0.71,0.71 0 0 1 0.76,-0.65 h 2.23 a 0.71,0.71 0 0 1 0.77,0.65 z"
     id="path184"
     style="fill:#ffffff;fill-opacity:1"
     inkscape:connector-curvature="0" />
  <path
     class="cls-1"
     d="m 169.8,22.4 a 0.5,0.5 0 0 1 0.46,0.53 v 1.54 A 0.51,0.51 0 0 1 169.79,25 l -0.7,-0.17 a 0.5,0.5 0 0 1 -0.46,-0.53 v -1.54 c 0,-0.29 0,-0.63 0.47,-0.52 z"
     id="path186"
     style="fill:#ffffff;fill-opacity:1"
     inkscape:connector-curvature="0" />
  <path
     class="cls-1"
     d="m 145.39,22.4 a 0.5,0.5 0 0 0 -0.46,0.53 v 1.54 A 0.5,0.5 0 0 0 145.4,25 l 0.71,-0.17 a 0.51,0.51 0 0 0 0.46,-0.53 v -1.54 c 0,-0.29 0,-0.63 -0.47,-0.52 z"
     id="path188"
     style="fill:#ffffff;fill-opacity:1"
     inkscape:connector-curvature="0" />
</svg>
