<?xml version="1.0" encoding="utf-8"?>
<!-- Generator: Adobe Illustrator 22.0.1, SVG Export Plug-In . SVG Version: 6.00 Build 0)  -->
<svg version="1.1" id="Livello_1" xmlns="http://www.w3.org/2000/svg" xmlns:xlink="http://www.w3.org/1999/xlink" x="0px" y="0px"
	 viewBox="0 0 103.8 167.7" style="enable-background:new 0 0 103.8 167.7;" xml:space="preserve">
<style type="text/css">
	.st0{fill:#FFFFFF;}
</style>
<title>logo_antinori</title>
<g>
	<path class="st0" d="M70.1,71.3l-17.9,45.9L34.3,71.3l-19.2,49.1l19.2,47.3l18-44.4l17.8,44.4l19.2-47.3L70.1,71.3z M32.9,81.2
		l1.5,4h-3L32.9,81.2z M30.6,87.1h4.5l1.4,3.6h-7.4L30.6,87.1z M28.4,92.9h9l1.4,3.6H26.9L28.4,92.9z M26.2,98.5h13.4l1.4,3.9H24.8
		L26.2,98.5z M24,104.2h17.7l1.5,3.6H22.4L24,104.2z M21.7,109.8H44l1.4,3.7H20.3L21.7,109.8z M19.6,115.5h26.5l1.5,3.7H18
		L19.6,115.5z M32.9,158.3l-1.4-3.3H34L32.9,158.3z M34.9,153.2h-4.1l-1.5-3.6h7L34.9,153.2z M37.1,147.6h-8.5l-1.6-3.7h11.7
		L37.1,147.6z M39.5,142H26.3l-1.5-3.7h16.1L39.5,142z M41.7,136.2H24l-1.6-3.9h20.8L41.7,136.2z M44,130.7H21.7l-1.5-3.9h25.2
		L44,130.7z M46.3,125H19.4l-1.5-3.8h30L46.3,125z M68.7,158.4l-15.2-37.7l15.2-39.2l15.2,39.2L68.7,158.4z"/>
	<path class="st0" d="M52.2,12.5c1.1,1,2,5.5,0.4,6.5c-0.3,0.2-0.8,0.2-1.1,0c0.4-0.1,0.6-0.4,0.7-0.8
		C52.5,16.3,52.5,14.4,52.2,12.5"/>
	<path class="st0" d="M69.4,16.7c-0.5,0.6-0.5,1.5,0.2,2.1c0.4,0.3,0.9,0.4,1.4,0.3c0.3-0.1,0.4-0.4,0.4-0.7
		c-0.5,0.4-1.3,0.2-1.7-0.3c-0.1-0.2-0.2-0.4-0.2-0.6c0.3-0.4,0.6-0.7,1.1-0.8C70.5,15.9,69.9,16.6,69.4,16.7"/>
	<path class="st0" d="M70.6,16.6c-0.5,0.1-0.8,0.4-1.1,0.8c0,0.6,0.5,1.2,1.2,1.2c0.2,0,0.5-0.1,0.7-0.2c0,0.3-0.1,0.6-0.4,0.7
		c-0.8,0.3-1.6-0.1-1.9-0.9c-0.2-0.5-0.1-1,0.3-1.4C69.6,16.5,70.4,15.9,70.6,16.6"/>
	<path class="st0" d="M91.8,19.7c-0.2-0.4-0.4-0.8-0.7-1.2c-0.6-0.3-1.2-0.8-1.7-1.3c1.6-0.3,2.2,1.2,2.6,2.3
		C92,19.6,91.9,19.7,91.8,19.7"/>
	<path class="st0" d="M14.2,17.4c-0.4,0.6-1,1-1.6,1.2c-0.4,0.4-0.5,0.8-0.8,1.2c-0.5-0.6,0-1.1,0.6-1.7
		C12.8,17.5,13.5,17.2,14.2,17.4"/>
	<path class="st0" d="M8,19.9c0.1,0,0.1,0,0.2,0c1.1,1.3,1.6,3,1.5,4.7c0.1,0.9-0.6,1.6-1.4,1.6c-0.2,0-0.4,0-0.5-0.1
		c0.3-0.2,0.5-0.6,0.6-1C8.5,23.5,8.4,21.7,8,19.9C7.9,20,8,19.9,8,19.9"/>
	<path class="st0" d="M96.2,20.5h0.1c0.5,1.2,0.7,2.5,0.6,3.7c0.1,1-0.7,1.9-1.7,2c-0.1,0-0.1,0-0.2,0c0.2-0.3,0.4-0.5,0.5-0.8
		C95.9,23.6,96.1,22.4,96.2,20.5C96.2,20.6,96.2,20.5,96.2,20.5"/>
	<path class="st0" d="M88.6,23.4c-0.8-0.2-1.6,0-2.1,0.5c-0.1,0.4-0.4,0.8-0.8,1c-0.5-1.2,1.1-2.2,2.3-2.1
		C88.2,22.8,88.7,22.8,88.6,23.4"/>
	<path class="st0" d="M18.1,25.1c-0.3-0.1-0.5-0.4-0.5-0.7c-0.6-0.7-1.4-1-2.3-1c0.1-0.4,0.8-0.4,1.2-0.4c1,0,1.7,0.8,1.7,1.8
		C18.1,24.9,18.1,25,18.1,25.1"/>
	<path class="st0" d="M63.2,36.9c7.4,0.3,14.7,1.6,21.8,3.7c0.4,0,0.8,0.2,1.1,0.6c-0.2,0.6-0.8,0.2-1.2,0.1
		c-1.3-0.4-2.5-0.8-3.9-1.2c-3.8-1-7.6-1.7-11.5-2c-1.3-0.1-2.8-0.4-4.4-0.5C64.4,37.7,63.7,37.5,63.2,36.9"/>
	<path class="st0" d="M38.3,37.7c-7.3,0.6-14.5,2-21.4,4.2c-0.4,0.1-0.8,0.5-1.1,0c0.2-0.4,0.6-0.6,1-0.6c4.7-1.5,9.4-2.6,14.3-3.3
		c1.9-0.3,3.9-0.7,5.8-0.7C37.4,37.2,37.9,37.4,38.3,37.7"/>
	<path class="st0" d="M41.9,47.6c-1.4,0.3-2.8,0.5-4.2,0.5c-2.8,0.3-5.5,0.7-8.3,1.3c-1.6,0.3-3,0.6-4.5,1c-1.8,0.4-3.5,1.1-5.1,2
		c-0.4,0.2-0.7,0.6-0.8,1.1c0,0.6,0.3,1.1,0.8,1.4c-1,0.2-2-0.5-2.2-1.5c0-0.1,0-0.2,0-0.2c0-1.6,3-2.3,5.2-2.9
		c3.1-0.8,6.2-1.5,9.3-1.9c1.7-0.2,3.4-0.5,5.1-0.7C38.9,47.6,40.4,47.6,41.9,47.6"/>
	<path class="st0" d="M81.8,50.3c0,0.3,0,0.4,0,0.7c-4-1.2-8.1-1.9-12.2-2.3c0-0.1,0-0.2,0-0.3c0.1,0,0-0.2,0.2-0.2
		C73.9,48.5,77.9,49.2,81.8,50.3"/>
	<path class="st0" d="M80.8,55.5c0-0.2,0-0.4,0-0.7c0-0.6,0-1.2,0-1.9c-0.3-0.2-0.6-0.3-0.9-0.3c-0.1,0.6,0,1.3-0.1,2
		c-1.4-0.9-1-0.4-1.1-2.2c-0.1,0-0.7-0.2-0.9-0.3c0,0.4,0,0.8,0,1.2c-0.2,0-0.5-0.2-0.6-0.3c0-0.3,0-0.6,0-0.9
		c-3.6-0.7-7.3-1.3-11-1.6c-2.2-0.2-4.3-0.3-6.5-0.4c-1,0-2.8-0.1-3.7-0.1h-4.4c-0.8,0-1.7,0-2.3,0c0,0.2,0,0.3,0,0.8
		c-0.2,0.4-0.4,0.9-0.7,1.2c0-0.6,0-1.5,0-2c-0.7,0-1.2,0-1.9,0c-0.1,0.6-0.1,1.2,0,1.9c-0.3,0.2-0.7,1.3-1,1.4c0-0.8,0-2.3,0-3.2
		c-0.7,0-1.2,0-2,0c0,0.9,0,1.7,0,2.8c-0.3,0.4-0.7,0.9-1,1.2c0-1.2,0-2.5,0-4.1c-0.6,0-1.2,0-1.7,0.2c-0.1,1.3,0,2.1-0.1,3.5
		c-0.4,0.5-0.9,1-1.4,1.4c0.1-1.3,0-3.3,0.1-4.7c-0.5,0-1,0-1.4,0.1c0,1.4,0,2.4,0,3.9c-0.5,0.2-1,1.2-1.5,1.5c0-1.5,0-3.2,0-5.1
		c-0.4,0-0.7,0-1.1,0c-0.1,1.7,0,2.4,0,4.3c-0.5,0.1-1,1.2-1.5,1.3c0.1-1.7,0-3.5,0-5.3c-0.4,0-0.8,0-1.2,0.1c0,1.7,0,2.7,0,4.6
		c-0.4,0.1-1.1,1.1-1.4,1.2c0-1.9,0-3.6,0-5.6c-0.2,0-0.5,0-0.7,0c-0.1,1.7,0,3.6-0.2,5.2c-1.4,0-2.8-0.2-4.2-0.4
		c-1.4-0.2-2.8-0.5-4.2-1c-0.9-0.4-1.7-1.2-1-2.2c0.6-0.5,1.4-0.9,2.2-1.2c1.3-0.4,2.8-0.7,4.1-0.9c3.7-0.7,7.7-1.2,11.8-1.5
		c2.7-0.2,5.3-0.3,8.1-0.4c1.9,0,3.7,0,6.1,0c4.5,0.1,8,0.1,12.1,0.4c3.3,0.2,6.2,0.5,9.4,1c2.1,0.3,4.2,0.7,6.3,1.2
		c0.8,0.2,1.6,0.5,2.4,0.8c0.4,0.2,0.7,0.5,0.9,0.9c0.1,0.6-0.3,1.1-0.8,1.3C83,55,82,55.3,81.1,55.3"/>
	<path class="st0" d="M83.2,50.8c1.3,0.4,2.9,0.7,3.2,1.7c0.1,0.4,0,0.8-0.3,1.1c-0.1-0.3-0.2-0.5-0.3-0.7c-0.2-0.3-0.4-0.5-0.6-0.6
		c-0.6-0.3-1.3-0.6-2-0.8C83.3,51,83.3,51.1,83.2,50.8"/>
	<path class="st0" d="M31.3,15.2h-0.5c1.5,0.3,2.6,1.6,2.5,3.1c0.1,1.5-0.9,2.8-2.3,3.1c0.1,0,0.2,0,0.3,0c1.7,0,3.1-1.4,3.1-3.1
		S33,15.2,31.3,15.2L31.3,15.2"/>
	<path class="st0" d="M27.2,8.2c-0.2,0-0.3,0-0.5,0c1.5,0.3,2.6,1.6,2.5,3.1c0.1,1.5-0.9,2.8-2.3,3.1c0.1,0,0.2,0,0.3,0
		c1.7,0,3.1-1.4,3.1-3.1S28.9,8.2,27.2,8.2"/>
	<path class="st0" d="M76.2,7.6h-0.5c1.5,0.3,2.6,1.6,2.5,3.1c0.1,1.5-0.9,2.8-2.3,3.1c0.1,0,0.2,0,0.3,0c1.7,0,3.1-1.4,3.1-3.1
		S77.9,7.6,76.2,7.6L76.2,7.6"/>
	<path class="st0" d="M72.3,14.3c-0.2,0-0.3,0-0.5,0c1.5,0.3,2.6,1.6,2.5,3.1c0.2,1.5-0.8,2.8-2.3,3.1c0.1,0,0.2,0,0.3,0
		c1.7,0,3.1-1.4,3.1-3.1S74,14.3,72.3,14.3L72.3,14.3"/>
	<path class="st0" d="M25.2,16.4l0.8,0.5c-0.4,1.2-0.3,2.5,0.4,3.5l0.1,0.2c-0.7-0.5-1.3-1.3-1.6-2.1c-0.2-0.7-0.3-1.5-0.2-2.2
		C24.7,15.9,25.2,16.4,25.2,16.4"/>
	<path class="st0" d="M103.8,11.9c-1.1-2.3-3.8-3.3-6.1-2.3c-0.2,0.1-0.4,0.2-0.5,0.3c-1.3-1.6-3.4-2.5-5.5-2.1c0,0.4,0.2,0.7,0.5,1
		c0.9,0.7,0.3,2.3,0.2,3.5c-2.3-0.2-3.9,0.9-3.6,3.3c-1,0.3-1.7,1.2-1.6,2.2c-1.1,0.3-2.2,0.3-3.3,0c0.1,1.6,0.6,3.1,1.4,4.5
		c-1,0.6-1.6,1.8-1.5,2.9c0.1,0.9,0.5,1.8,1,2.6c0.7,0.9,1.7,1.3,2.8,1.3c-0.1-0.6,0.2-1.2,0.8-1.3h0.1c0.5,0.2,0.8,0.8,0.7,1.4
		c-0.2,1.5-0.7,2.9-1.5,4.1c-1,1.5-2.7,2.8-4.2,1.7c-0.6-0.3-0.3-2.3,0.4-3.4c0,0-0.3-0.9-0.2-1.1c-1.2-0.3-2.5-0.6-3.7-0.7
		c-0.1,1-0.5,2-1.1,2.9c-0.4,0.5-1,0.9-1.6,1c-0.8,0.1-1.4-0.4-1.5-1.2c0-0.1,0-0.2,0-0.4c-0.2-1.2,0.5-2.3,1.7-2.7
		c0.7,0.1,1.4,0.3,2,0.7c0.9-1,1-2.6,0.3-3.7c-0.6-1-1.7-1.7-3-1.9c0.1-0.3,0.2-0.7,0.2-1.1c2,0.5,4.1-0.3,5.2-2.1
		c1,0.2,1.6-0.8,1.5-1.9c-0.3-0.2-0.5-0.4-0.7-0.7c0.1-1.6-0.7-3.1-2.1-3.9c0.8-1.2,1.1-2.7,0.8-4.1c-0.4-1.5-1.3-2.8-2.7-3.5
		c0.1-0.3,0.1-0.5,0.2-0.8c-0.6-0.8-1.6-1.1-2.5-0.8c-0.3,0.2-0.2,0.6-0.5,0.9c-3.6,0-5.3,3.2-4.4,6.6c-1.1,0.2-2.1,0.7-2.9,1.5
		c-1,1.1-1.5,2.7-1.3,4.2c0.1,0.6,0.3,1.1,0.6,1.6c0.5,1,1.3,1.8,2.3,2.3c0.9,0.3,1.7,0.5,2.6,0.5c0,0.4-0.1,0.8-0.3,1.2
		c-1.2-0.7-2.8-0.4-3.6,0.9c-0.3,0.6-0.5,1.2-0.3,1.8c0.1,0.5,0.3,0.9,0.7,1.2c0.6,0.2,0.5-0.4,1.1-0.4c1,0,0.8,1.4,0.4,2.1
		c-0.7,1.2-2,2-3.4,1.9c-2-0.1-2.2-2-1.9-4.2c-0.1-0.3-0.2-0.5-0.2-0.8c0,0-2.1-0.3-4-0.4c0,2-0.7,4.4-2.5,4.5
		c-1.9,0.1-3.9-2.3-4.2-4.6c-0.1-1.2-0.5-4.5,1-3.7c-0.1,0.4-0.3,0.8-0.7,1C55,23.8,55,24,55.5,24.6c0.9,1.1,2.3,1.6,3.7,1.5
		c1.4-3,3.6-5.4,6.3-7.1c0-0.6,0-1.2,0.1-1.9c-0.3-0.5-0.7-0.8-1.2-1.1c-0.7,0.5-1.6,0.4-2.1-0.2c0.2-0.8-0.2-1.9,0-2.3
		c-1.3-1.3-3.2-1.7-4.9-1.2c0.5-0.6,1.3-0.9,2.1-0.9c0.3-0.9-0.3-1.9-1.2-2.1l0,0c0.7-0.8,1.1-1.8,1-2.8c0-0.2,0.3-0.1,0.3-0.4
		c-0.2-0.4-0.5-0.7-0.9-0.8c-0.8,0.3-1.7,0.4-2.5,0.3c-0.4-2.3-1.9-3-3.2-4.3c-0.4-0.5-0.9-1-1.5-1.3c-0.4,0.4-0.7,0.9-0.9,1.4
		c-0.7,0.8-2,1.3-2.6,2c-0.4,0.5-0.6,1-0.7,1.6c0.1,0.4,0.1,0.7,0,1.1c-1.1,0-2.2-0.1-3.3-0.2c0,1.3,0.4,2.6,1.1,3.7
		c-0.6,0.2-1.1,0.8-1.2,1.5c-0.1,0.3-0.1,0.6,0,0.9c0,0.1,0.2,0,0.4,0c0.9-0.1,1.7,0.4,2.1,1.1c-0.9-0.2-1.8-0.4-2.7-0.5
		c-0.8,0-1.4,0.4-2.2,0.4c-0.5,0.9-0.6,1.9-0.3,2.8c-0.5,0.6-1.2,1-2,1c-0.3,0-0.5-0.3-0.8-0.3c-0.6,1.1-0.6,2.4,0,3.5
		c0.4,1.3,1.5,2.1,2.8,2.1c0,0.3,0,0.6,0,0.9c0.2,1.2,0.9,2.3,1.9,3.1c1.8,0.8,3.9,0.3,5.1-1.3c-0.3-0.3-0.5-0.6-0.7-1
		c-0.1-0.3,0.2-0.6,0.5-0.7l0,0c0.4,0,0.6,0.3,0.7,0.6c0.2,0.7,0.2,1.5,0.1,2.2c-0.1,0.8-0.3,1.5-0.5,2.2c-0.3,0.7-0.7,1.4-1.2,2
		c-0.9,1.2-2.6,1.5-3.9,0.7c-0.7-0.9-1-2.1-1-3.3l-0.6-0.8c0,0-2.6,0.2-4.1,0.4c0.7,2.7-0.1,4.7-2.4,4.8c-1,0-1.9-0.4-2.5-1.1
		c-0.7-0.7-0.8-3,0.4-3.1c0.3,0.2,0.7,0.3,1.1,0.4c0.6-0.3,0.2-2,0-2.5c-0.5-0.9-1.4-1.5-2.4-1.6c-0.4-0.1-0.8-0.1-1.2,0
		c0-0.2,0-0.3,0-0.5c0.7,0.1,1.4,0.1,2.2-0.1c1.7-0.6,2.9-2,3.3-3.7c0.5-2.7-1.2-5.4-4-6c0.2-0.8,0.3-1.7,0.2-2.5
		c-0.3-1.2-1-2.4-2-3.2c-1-0.9-2.4-1.3-3.7-1.3c-0.4-0.6-1.3-0.9-2-0.6c-0.3,0.3-0.4,0.8-0.3,1.2c-0.8,0.3-1.4,0.9-1.9,1.6
		c-0.1,0.2-0.2,0.4-0.4,0.5c-0.9,1.7-0.7,3.9,0.6,5.4c-1.2,1-1.7,2.6-1.4,4.1c0,0-0.7,0.4-0.8,0.5c-0.2,0.2-0.2,0.4-0.2,0.6
		c0,0.6,0.2,1.1,0.7,1.5c0.2,0.1,0.4,0.2,0.6,0.2l0.6-0.1c1.2,1.3,3,2,4.8,1.9c0.1,0.4,0.1,0.9,0,1.3c-1.5-0.4-3,0.6-3.3,2
		c-0.1,0.3-0.1,0.6-0.1,1c0.2,0.8,0.6,1.6,1.1,2.2c0.6-0.5,1.4-0.7,2.2-0.5c0.6,0.1,1.2,0.5,1.3,1.1c0.1,0.8-0.1,1.5-0.4,2.2
		c-0.6,0.6-1.5,0.8-2.3,0.5c-0.3-0.2-0.6-0.5-0.8-0.8c-0.3-0.7-0.6-1.4-0.7-2.1c-0.2-0.1-0.8-0.4-1.1-0.7c0,0-1,0.2-1.6,0.4
		c-0.6,0.1-1.1,0.3-1.6,0.6c0.5,1.1,0.7,2.3,0.6,3.5c-0.6,1.9-3.1,0.6-3.9-0.3c-1-1.3-1.6-2.8-1.7-4.4c-0.1-0.7,0.3-1.4,0.9-1.6
		c0.1,0.5,0.2,1,0.5,1.5c1.5-0.1,2.8-1,3.4-2.4c0.9-1.5,0.4-3.5-1.1-4.5c0,0-0.1,0-0.1-0.1c1.1-0.8,0.8-2.4,1.6-3.5
		c-0.3-0.4-0.6-0.7-0.9-1c-0.9,0-1.7,0-2.5-0.1c0-1.1-0.8-2-1.9-2.1c0.3-1.5-0.7-3-2.3-3.3c-0.5-0.1-1-0.1-1.5,0.1
		c0.2-1,0.3-2,0.2-3.1c0.3-0.1,0.5-0.3,0.7-0.6c-0.2-0.4-0.5-0.8-1-0.9C9,7.8,7.5,8.2,6.4,9.1C6.2,9.5,5.9,9.8,5.5,10
		C5.3,9.9,5,9.8,4.8,9.7C4.5,9.5,4.2,9.4,3.9,9.3C0.3,8.9-1,12.1,0.7,14.9c0.4-0.4,0.9-0.7,1.5-0.8c0.5-0.1,1.1,0,1.5,0.2
		c1.4,0.7,0.3,3.4,0.4,5c0.2,0.9,0.5,1.7,0.8,2.5c0.1,0.9-0.2,1.7-0.1,2.5c0.2,2.1,1.3,3.9,3.1,5c0.3,3.2,2.5,5,4.1,6.9
		c1.2,1,1.8,2.6,1.4,4.2c-0.1,0.3-0.4,0.7-0.5,1c-0.1,0.5-0.1,1,0.1,1.5c0.3,1,1,1.8,2,2.2c0,0.2-0.1,0.4-0.1,0.7
		c-0.2,2,1.1,3.5,0.8,5.1c-1.3,1.2-1.4,3.2-0.3,4.5c0.9,0.9,1.9,1.5,3.1,1.9c1.9,0.7,3.8,1.1,5.7,1.4c1.2,0.2,2.5,0.4,3.7,0.6
		c6.8,0.9,13.6,1.4,20.5,1.4c5.1,0.2,10.1,0.1,15.2-0.3c6.4-0.3,12.7-1,18.9-2.2c2.3-0.3,4.6-1.2,6.4-2.7c0.3-0.4,0.5-0.8,0.6-1.3
		c0.3-2-1.7-2.1-1.3-4c1.2-1.2-0.6-5,2-5.3c0.8-0.3,1.1-2.3,0.7-3.5c-0.4-1.2-1-1-1.1-1.4c-0.1-1.9,1.4-3.3,2.5-4.6
		c1.5-1.9,3-3.2,3.1-6.2c1.3-0.4,2.3-1.6,2.5-3c0.2-0.7,0.3-1.4,0.2-2.1c-0.1-0.7-0.1-1.3,0-2c0-0.2,0.2-0.4,0.3-0.7
		c0.7-2.4-0.6-5.9,1-7.2c1.1-0.3,2.3-0.1,3.3,0.3c0.3-0.9,0.4-1.9,0.3-2.8 M81.9,19.1c-1.5,4.7-6.2,2.5-6.2,2.5
		c1.7-1.4,2.3-3.8,1.4-5.8c1,0,2-0.4,2.7-1.2C79.8,14.6,82.7,16.5,81.9,19.1 M73.5,8c0.4-0.4,0.9-0.7,1.4-0.9c1-0.4,2-0.4,3-0.1
		c1,0.4,1.8,1.2,2.2,2.3c0.9,2-0.1,4.4-2.1,5.3c-0.5,0.2-1,0.3-1.6,0.3c-0.9-1.1-2.1-1.8-3.5-2c0-0.3-0.1-0.6-0.3-0.8
		C72.1,10.7,72.4,9.1,73.5,8 M69.5,20.2c-1.2-1.5-1.3-3.5-0.3-5.1c0.6-0.7,1.4-1.2,2.3-1.4c1.8-0.4,3.6,0.6,4.4,2.2
		c0.3,0.8,0.4,1.8,0.2,2.6c-0.6,2.1-2.9,3.3-5,2.7C70.6,21,70,20.7,69.5,20.2 M57.2,23c0.2-0.8-0.2-1.5-0.9-1.9
		c-0.5-0.1-1-0.1-1.5,0.2c-0.3,0.2-0.6,0.6-0.8,0.9c-0.3,0.7-0.4,1.6-0.4,2.4c0,0.9,0.1,1.9,0.3,2.8c0.3,1.2,0.8,2.3,1.5,3.2
		c0.8,0.8,1.7,1.3,2.8,1.5c2.7,0.3,4.2-2.1,4.3-4.9c0.7-0.1,1.3,0,2,0.2c-0.5,3.5,1.6,6,5,5.3c0.5-0.2,1.1-0.4,1.5-0.7
		c1.4-1.1,2-2.9,1.6-4.7c-0.5-0.9-1.5-1.3-2.4-1.1c-0.2-1.4,1.7-1.9,2.6-1.2c0.2,0.3,0.4,0.6,0.7,0.8c0.4-1,0.7-2.1,0.9-3.2
		c0.2-0.8,0.6-0.7,1.3-0.4c-0.2,1.2-0.3,2.4-0.3,3.5c0.3,0,0.5-0.2,0.7-0.4c0.9-0.3,1.9,0,2.5,0.6c0.4,0.6,0.5,1.4,0.1,2.1
		c-0.4-0.2-0.9-0.3-1.4-0.4c-3.5-0.3-3.9,5-1.4,6.3c1.1,0.5,2.3,0.4,3.3-0.3c0.8-0.9,1.4-2,1.8-3.2c0.6,0.1,1.1,0.1,1.7,0.3
		c-0.3,1.1-0.4,2.2-0.4,3.3c0.3,1.5,1.7,2.4,3.1,2.2c0.2,0,0.4-0.1,0.6-0.2c2.2-0.8,4-4.1,4.4-6.6c0.4-1.3-0.4-2.7-1.8-3.1
		c-0.1,0-0.3-0.1-0.4-0.1c-0.5,0.1-1,0.4-1.4,0.7c0-1.2,1-2.1,2.1-2.1c0.5,0,1.1,0.2,1.4,0.6c0.4,0.4,0.7,0.9,0.9,1.4
		c0.3,1.1,0.3,2.3,0,3.5c-0.5,2.4-1.8,4.6-3.7,6.2c-0.7,0.5-1.6,0.9-2.4,1.2c-1.9,0.3-3.7-1.1-3.9-3c0-0.1,0-0.2,0-0.4
		c-0.2-0.1-0.5-0.2-0.8-0.3c-0.3,0.2-0.5,0.5-0.7,0.8c-0.5,0.6-1.1,0.9-1.9,1c-2.9-0.2-4.2-1.4-4.4-3.9c-0.3,0-0.5,0-0.8-0.1
		c-0.4,0.6-0.8,1.1-1.3,1.6c-1.2,0.9-2.6,1.3-4.1,1.1c-1.8-0.1-3.3-1.5-3.5-3.3c-0.3,0-0.6,0-0.9,0c-0.1,0.4-0.3,0.8-0.6,1.2
		c-0.4,0.3-0.8,0.6-1.2,0.8c-1.4,0.6-3,0.6-4.4,0.1c-1.7-0.7-3-2-3.7-3.7c-0.6-2-0.8-4.2-0.5-6.3c0.3-2,2.1-3.5,4.2-3.2
		c0.1,0,0.1,0,0.2,0c1.2,0.2,2,1.4,1.7,2.6v0.1c-0.1,0.7-0.7,1.3-1.4,1.3c0-0.3,0-0.5,0.2-0.7 M45.5,10.4c0.6-0.7,1.5-0.9,2.3-0.6
		c0.3,0.1,0.7,0.2,1.1,0.3c-0.7-0.7-1.6-1.2-2.6-1.4c-0.6-0.5-1-1.3-0.9-2.1c1.5-0.2,3.1,0.1,4.3,1c0.1,0,0.2-0.1,0.2-0.1
		c-0.1-0.4-0.3-0.8-0.7-1c-0.6-0.8-0.6-1.9,0-2.7c0.6-0.6,2.1-1.1,2.6-1.7C51.9,2,52,2,52.1,2c0.4,0.1,0.7,0.3,1,0.5s0.7,0.4,1,0.6
		c0.5,0.4,0.9,0.9,1,1.5c0.2,1.2-0.8,1.7-1.2,2.6c0,0.1,0.1,0.2,0.2,0.3c1.3-0.9,2.8-1.3,4.3-1c0,0.6-0.2,1.2-0.5,1.6l-0.3,0.3
		l-0.4,0.4c-0.7,0.5-2,0.4-2.4,1.2v0.1c0.6-0.5,2.9-0.8,3.5,0.3c-0.6,0.2-1.2,0.6-1.8,1c-1.3,1.5-1.3,4-1.6,6.2c0-0.5,0.1-1.1,0-1.5
		c-0.2-1.3-0.6-2.6-1.2-3.7c-0.6-1.3-1.2-2.4-1.9-4.2c-0.1,0.3-0.2,0.6-0.3,0.9c-0.4,1-0.8,2-1.2,3c-0.9,1.6-1.4,3.3-1.6,5.1
		c0,0.3,0,0.6,0,0.9c-0.7-3-0.5-6.6-3.4-7.4 M53.8,18.5c-0.4,1.1-1.7,1.6-2.7,1.2c-0.3-0.1-0.5-0.3-0.7-0.5c-1.6-1.4-0.4-4.4,0.3-6
		c0.5-1.1,1-2.3,1.3-3.4C52.6,12.5,54.9,15.4,53.8,18.5 M42.6,21.6c0.1-0.6,0.5-0.9,0.7-1.5c-0.3-0.1-0.7-0.1-1,0.1
		c-1.2,0.2-2.4-0.6-2.6-1.9c0-0.3,0-0.5,0-0.8c1.9,0,2.5-1.6,4-1.9c0.5,0,0.8,0,1.3,0c-0.6-0.6-1.5-0.8-2.3-0.5
		c-0.2-0.5-0.2-1.1,0-1.6c1.1-0.5,2.4-0.6,3.5-0.1c1.1,0.9,1.7,2.2,1.8,3.5c-0.7-0.7-1.6-1.1-2.6-1c-0.1,0.1,0.3,0.3,0.7,0.4
		c0.7,0.3,1.4,0.7,1.9,1.3c-1.1-0.1-2.3-0.1-3.4,0.3c-0.6,0.2-1.4,0.4-1.3,1c1.2-0.6,2.6-0.9,4-0.6c1.6,0.4,2.7,1.9,4.2,2
		c1,0.1,2-0.3,2.7-1.1c0.2-0.2,0.7-0.2,1-0.4c0.7-0.5,1.5-0.8,2.3-0.8c1.1,0,2.1,0.2,3.1,0.7c-0.3-0.6-0.8-1-1.4-1
		c-1.1-0.2-2.2-0.2-3.3-0.1c0.4-0.6,1-1.1,1.8-1.4c0.3,0,0.6-0.2,0.7-0.4c-0.9-0.1-1.9,0.3-2.5,1c-0.2-1.9,1.2-3.7,3.1-4
		c0.9-0.2,1.8,0.3,2,1.2c0.1,0.3,0.1,0.6,0,0.9c-0.8-0.2-1.7-0.1-2.3,0.4c0.4,0.1,0.8,0.2,1.2,0.1c1.4,0.2,2.2,1.5,3.5,1.9H64
		c0.3,1.2-0.5,2.4-1.7,2.7c-0.3,0.1-0.6,0.1-0.9,0c-0.4,0-0.8-0.4-1.1,0c0.6,0.7,0.9,1.7,0.8,2.6c-0.5,1.3-1.9,2-3.2,1.7
		c0.9-0.6,1.4-1.6,1.2-2.7c-0.3-1.3-1.4-2.3-2.7-2.5c-0.4,0-0.7,0-1.1,0c-0.2,0-0.3,0.1-0.5,0.2l-0.7,0.2c-0.2,0-0.3,0.2-0.6,0.4
		c-0.4,0.2-0.7,0.5-0.9,0.8c0,0.1-0.1,0.3-0.2,0.4c-0.3,0.4-0.4,0.8-0.5,1.3c-0.3-0.7-0.7-1.3-1.1-1.9c-0.2-0.1-0.4-0.2-0.6-0.3
		c-0.2-0.1-0.3-0.2-0.5-0.3c-1.4-0.8-3.2-0.6-4.4,0.5c-1,1.2-0.9,3,0.3,4c0.1,0.1,0.2,0.1,0.3,0.2c-1.4,0.4-2.8-0.5-3.2-1.9
		C42.6,22.2,42.5,21.8,42.6,21.6 M23.1,11.1c0.1-1.2,0.7-2.3,1.8-3c0.4-0.2,0.8-0.4,1.2-0.5c0.8-0.2,1.6-0.2,2.3,0
		c0.4,0.1,0.7,0.3,1,0.5s0.6,0.5,0.9,0.7c0.3,0.3,0.5,0.6,0.7,1c0.3,0.6,0.4,1.3,0.3,2c0,0.6-0.3,1.3-0.7,1.7
		c-0.4,0.2-0.9,0.4-1.4,0.6s-1,0.5-1.4,0.9c-0.1,0.2-0.3,0.4-0.5,0.4C25.1,15,23,13.7,23.1,11.1 M25.7,21.4
		c-0.9-0.1-1.8-0.5-2.4-1.2c-0.6-0.8-0.8-1.8-0.6-2.8c0.1-0.9,0.6-1.7,1.5-2c0.6,0.2,1.2,0.5,1.7,0.9c0.2,0.1,0.5,0.3,0.8,0.5
		c-0.1,0.3-0.2,0.7-0.2,1c-0.1,0.7,0,1.5,0.3,2.2c0.2,0.5,0.5,1,0.7,1.5C26.9,21.5,26.2,21.5,25.7,21.4 M27.4,17.3
		c0.4-2,2.4-3.3,4.4-2.9c0.4,0.1,0.8,0.2,1.2,0.5c0.8,0.4,1.4,0.9,1.9,1.7c0.6,1,0.7,2.2,0.4,3.3c-0.4,1.1-1.3,1.9-2.4,2.2
		c-0.4,0-0.8,0-1.2,0c-2.1,0.2-4-1.5-4.2-3.6C27.3,18,27.4,17.7,27.4,17.3 M16,26c-2.4-0.1-2.2,2.9-1.7,4.7c0.3,1,0.8,1.9,1.4,2.7
		c0.7,1.4,2.1,2.4,3.7,2.5c2.5,0,2.8-3,1.9-5.2c0.6-0.3,1.2-0.4,1.9-0.5c0.4,1.2,1,2.2,1.8,3.2c1.9,1.2,4.6,0.5,4.8-1.7
		c0.1-1.3-0.3-2.6-1.2-3.6c-1-0.6-2.2-0.6-3.3-0.2c-1-1.8,1-3.3,2.9-2.6c0.1,0.2,0.4,0.3,0.6,0.4c0.4-1.2-0.5-2.7-0.3-3.7
		c0.6,0,0.8,0.5,1.4,0.5c0.1,1,0.4,2.1,0.6,3.1c0.5-0.2,0.5-0.7,1.1-0.9c0.9-0.4,1.9,0,2.3,0.9c0.1,0.2,0.1,0.3,0.1,0.5
		c-0.8-0.2-1.6,0-2.1,0.7c-0.8,2.3,0.3,4.8,2.6,5.6c0.5,0.2,1,0.3,1.6,0.3c2.7-0.1,3.9-2.3,3.4-5.3c0.7-0.1,1.3-0.2,2-0.1
		c0.1,1.4,0.7,2.8,1.7,3.9c0.6,0.5,1.4,0.8,2.1,0.9c3.7,0.4,6-4.7,5.2-8.7c-0.1-0.7-0.4-1.3-0.9-1.9c-0.5-0.4-1.2-0.5-1.9-0.3
		c-0.4,0.2-0.8,0.6-0.8,1c0,0.2,0,0.5,0,0.7c0,0.3,0.1,0.5,0.2,0.8c-1.6,0-1.9-2.3-0.9-3.3c1.2-1.3,3.9-0.5,4.8,0.6
		c0.9,1.7,1.2,3.7,1,5.6c-0.1,1-0.4,1.9-0.8,2.8c-1,2.4-3.4,3.9-6,3.8c-1.1-0.1-2.1-0.5-2.9-1.2c-0.4-0.3-0.7-0.7-0.9-1.2
		c-0.3,0-0.6,0-0.9,0c-0.2,2.5-3,3.7-5.6,3c-1-0.2-2-0.8-2.7-1.6c-0.1-0.1-0.3-0.5-0.5-0.7l-0.5,0.1l-0.1,0.5
		c-0.4,1.6-1.9,2.8-3.5,2.8c-0.8,0-1.5-0.1-2.3-0.3c-0.5-0.3-0.9-0.6-1.3-1c-0.3,0-0.5,0.1-0.7,0.2c-0.1,1.9-1.8,3.3-3.7,3.2
		c-0.5,0-0.9-0.2-1.3-0.4c-0.8-0.4-1.5-0.9-2.1-1.5c-0.9-1-1.6-2.1-2.3-3.3c-1.1-1.8-1.4-3.9-0.7-5.9c0.2-0.4,0.4-0.8,0.8-1.1
		c1.3-0.8,3.7-0.3,3.6,1.5c-0.4-0.4-0.9-0.6-1.4-0.7 M8.4,27.1c-0.7-0.2-1.2-0.7-1.5-1.3c-1.3-2.5,0.5-6.1,0.8-8.3
		c1,1.7,2.7,3.4,3,5.9c0.1,1.1-0.2,2.2-0.7,3.1C9.6,27,9,27.2,8.4,27.1 M16.4,43.8c0.9-0.7,2.2-0.6,2.9,0.3c0.1,0.1,0.2,0.2,0.2,0.3
		c0.4,1.5,0.3,3.1-0.1,4.6c-0.5,0.4-1.1,0.7-1.8,0.9c-0.1-0.3-0.1-0.6,0-0.9c0.2-0.4,1-0.5,1.3-1c0.1-0.5,0.1-0.9,0-1.4
		c-0.1-0.9,0.1-2.1-0.7-2.5c-0.5,0-1,0.1-1.5,0.3C16.6,44.2,16.5,44,16.4,43.8 M27.6,45c-0.5-0.3-1-0.7-1.5-1.2
		c-0.6-0.4-0.5-0.3,0-1c0.4-0.8,0.9-1.6,1.4-2.3h0.1C27.4,41.9,27.8,43.4,27.6,45 M20.6,47.7c-0.1-0.6-0.1-1.2,0-1.9
		c1,0.7,1.9,1.5,2.8,2.3c-0.5,0.2-1,0.3-1.5,0.4C21.4,48.5,21.1,47.7,20.6,47.7 M21,48.8c-0.2,0.1-0.4,0.2-0.6,0.2
		c0.1-0.1,0.2-0.3,0.2-0.5C20.8,48.5,20.9,48.6,21,48.8 M22.4,46.4c-0.2-0.1-0.4-0.2-0.6-0.4c0.2-0.4,0.4-0.8,0.7-1.2
		c1.1,0.9,2.3,1.8,3.3,2.8c-0.6,0-1,0.3-1.5,0.3C23.6,47.5,22.9,47,22.4,46.4 M24.5,45.5c0.2-0.5,0.5-0.9,0.8-1.4
		c0.8,0.5,1.5,1.2,2.3,1.9c0.1,0.4,0.2,0.9,0.4,1.3c-0.4,0-0.7,0.1-1,0.2C26,46.9,25.4,46.1,24.5,45.5 M25.6,42.1
		c-0.5,1-1,2-1.6,2.9c-0.4-0.3-0.7-0.6-1.1-0.8c0.4-1.2,1.2-1.9,1.7-3.1c0.6-0.2,1.3-0.3,1.9-0.5C26.2,41.2,25.9,41.7,25.6,42.1
		 M21.2,45.5c-1.9-0.6,0.7-2.6,0.8-3.7c0.5-0.2,1-0.3,1.5-0.4l0,0c-0.8,1.4-1.6,2.7-2.4,4 M20.1,43.4c-0.2-0.4-0.5-0.6-0.8-0.8
		c0.5-0.2,1-0.4,1.5-0.6c0,0,0.1,0,0.1,0.1C20.7,42.6,20.4,43,20.1,43.4 M86.4,55.3c-2.6,1.1-5.3,1.8-8.1,2.1
		c-2.8,0.4-6,0.7-8.9,1.1S63.1,59,59.9,59c-3.1,0.1-6.1,0.3-9.4,0.1c-3.3-0.1-6.6-0.2-9.8-0.3s-6.2-0.4-9.3-0.7
		c-4.4-0.2-8.7-1.1-12.8-2.5c-1.2-0.3-2.2-1.3-2.4-2.5c0.4-1.2,1.4-2.1,2.6-2.3c1.2-0.5,2.5-0.9,3.7-1.2c2.2-0.6,5.6-1.3,8.2-1.7
		c5.9-1,11.9-1.5,18-1.4h0.1c0.5,0,1.7-0.1,2.5,0c4.9,0.2,11.2,0.2,16.4,0.8c5.1,0.5,10.2,1.4,15.2,2.6c1.4,0.3,2.8,0.8,4.1,1.6
		c0.7,0.3,1.2,1,1.4,1.7C88.2,54.2,87.4,55.1,86.4,55.3 M28.1,42.6c-0.1-0.6,0-1.3,0.4-1.7c0.9-0.3,1.8-0.5,2.8-0.6
		c1.6-0.1,1.5,1.1,1.5,2.8s0.2,3-0.6,3.7c-1.2,0.2-2.3,0.5-3.6,0.6C27.8,46.5,28.1,44.3,28.1,42.6 M33.5,45.2c0.1-0.4,0.1-0.9,0-1.3
		c0.1-0.3,0.3-0.5,0.6-0.7h0.1c0.6,0.5,1.2,0.9,1.8,1.5c0.6,0.5,1.1,1,1.7,1.5c-1,0-1.7,0.2-2.6,0.2C34.5,46.1,34,45.7,33.5,45.2
		 M34.1,46.6c0,0.2-0.4,0-0.7,0.1c0.1-0.2,0.1-0.4,0.1-0.6C33.9,46.1,33.8,46.5,34.1,46.6 M36.2,44.1c0.5-0.4,0.8-1,1.2-1.4
		c1.3,1,2.5,2,3.7,3.1c-0.8,0.1-1.7,0.2-2.5,0.3C37.8,45.5,37,44.8,36.2,44.1 M39.9,43.9c0.2-0.4,0.5-0.8,0.9-1.2h0.1
		c0.6,0.4,1.2,0.9,1.7,1.5c0.6,0.4,1.1,1,1.6,1.5c-0.7,0-1.4,0-2.1,0c-0.7-0.7-1.6-1.2-2.3-2 M43.1,43.8c0.3-0.4,0.7-0.9,1-1.2
		c0.9,0.6,1.8,1.3,2.5,2.1c0,0.3,0.1,0.7,0.3,0.9c-0.5,0.1-1,0.1-1.4,0.1C44.5,45.2,44.1,44.2,43.1,43.8 M46.6,43.4
		c-0.4-0.1-0.7-0.4-0.9-0.7c-0.4-0.2-0.7-0.5-1-0.8c0.6-0.8,1.3-1.4,1.9-2.2C46.7,40.7,46.5,42.2,46.6,43.4 M43.8,41.8
		c-0.2,0.3-0.5,0.6-0.7,0.9c-0.1,0.2-0.2,0.3-0.4,0.4c-0.2,0-0.4-0.1-0.5-0.2l-0.6-0.4c-0.3-0.2-0.5-0.3-0.2-0.7s0.8-0.9,1.2-1.3
		c0.4-0.4,0.5-0.5,0.7-0.8s0.4-0.5,0.7-0.8h2.4C45.8,39.9,44.5,40.9,43.8,41.8 M42.8,39.2c-1.2,1.4-2.3,2.8-3.6,4.1
		c-0.5-0.3-1-0.7-1.5-1.2c1-0.9,1.6-2,2.6-2.8c0.8,0,1.7,0,2.5-0.2 M38.3,40.3c-0.7,0.9-1.5,1.7-2.4,2.7c-0.1,0.2-0.3,0.4-0.4,0.5
		c-0.4-0.3-0.8-0.6-1.2-1c0.8-1.1,1.9-2,2.7-3.1c0.6-0.1,1.5,0,2.1-0.2C39,39.7,38.7,40,38.3,40.3 M33.4,42.5
		c0.1-0.9-0.1-1.8-0.4-2.6l3-0.3C35.2,40.6,34.3,41.6,33.4,42.5 M47.2,42.6c-0.1-1.1,0-2.2,0.4-3.3c0.3-0.2,0.6-0.4,0.9-0.4
		c1.4-0.1,2.8-0.1,4.2,0c1.4,0,2.7,0.1,4.1,0.4c0.4,1.6,0.6,3.3,0.4,5c0,0.5-0.2,0.9-0.6,1.2c-0.7,0.2-1.4,0.2-2,0.1
		c-1.4,0-2.7-0.1-4.3-0.1c-1,0.2-2.1,0-2.9-0.6C47.2,44.1,47.1,43.3,47.2,42.6 M63.3,43.9c0.4-0.4,0.9-0.7,1.3-1
		c1.2,1.1,2.4,2.3,3.5,3.4c-0.9,0-1.8-0.1-2.7-0.2C64.9,45.2,63.9,44.7,63.3,43.9 M64.3,45.9c-0.8,0-1.5,0-2.3-0.1
		c-0.8-0.6-1.5-1.4-2.3-2c0.5-0.3,0.8-0.7,1.3-1.1C62.1,43.7,63.2,44.8,64.3,45.9 M66.9,44.1c0.3-0.4,0.7-0.8,1.2-1.1
		c1.1,0.7,2,1.6,2.9,2.6c0,0.4,0.1,0.8,0.2,1.2c-1,0.1-2-0.3-2.7-1.1C68,45,67.5,44.5,66.9,44.1 M68.8,42.3c0.7-0.6,1.4-1.1,2-1.9
		c0.2,1.2,0,2.5,0.1,3.8C70.2,43.7,69.5,43,68.8,42.3 M66.3,43.3c-0.4-0.3-0.7-0.8-1.2-1.1c0.9-0.9,1.9-1.7,2.9-2.5
		c0.7,0,1.5,0.2,2.1,0.2C68.9,41.2,67.7,42.3,66.3,43.3 M62.9,43.3c-0.5-0.3-0.9-0.7-1.3-1.2c1.1-0.9,2.1-1.9,3.1-2.7
		c0.8,0,1.5,0.1,2.3,0.2C65.7,41,64.2,42.1,62.9,43.3 M59.2,43.2c-0.4-0.3-0.8-0.6-1-1c1.2-1,2.3-2,3.5-3c0.7,0,1.3,0,2,0.1
		C62.2,40.8,60.7,42,59.2,43.2 M58,41.2c0-0.7-0.1-1.5-0.3-2.2c0.9-0.1,1.8-0.1,2.7,0C59.6,39.9,58.8,40.6,58,41.2 M57.9,43.2
		c1,0.7,1.8,1.6,2.6,2.5c-0.9,0.2-2.1-0.1-3,0C57.9,44.9,58,44.1,57.9,43.2 M76.6,47.5c-1.5-0.1-2.9-0.4-4.4-0.8
		c-0.5-0.7-0.7-1.6-0.6-2.5c0-1.4-0.5-3.6,0.7-3.9c0.4,0,0.7,0,1.1,0c1.3,0,2.6,0.4,3.7,1.2C77,43.3,77.9,46.4,76.6,47.5 M84.2,44.7
		c-0.1-0.1-0.2-0.2-0.2-0.3c0.1,0,0.2,0,0.2-0.1C84.3,44.4,84.3,44.5,84.2,44.7 M81.5,45.1c-0.2-0.4-0.5-0.9-0.7-1.3
		c0.7-0.5,1.5-0.9,2.1-1.4c0.6,0.1,1.2,0.3,1.7,0.5C83.7,43.8,82.6,44.5,81.5,45.1 M82,45.8c0.4-0.4,0.9-0.7,1.3-1
		c1,0.7,0.4,2.8,0.5,4.1C83.2,47.9,82.6,46.9,82,45.8 M82.9,48.9c-0.4,0-1.1-0.2-1.7-0.3c-0.7-1.2-1.4-2.4-2.1-3.6
		c0.3-0.3,0.7-0.6,1.1-0.8C81.2,45.7,82.1,47.3,82.9,48.9 M78.6,44.4c-0.2-0.3-0.4-0.7-0.6-1c0.9-0.5,1.6-1.1,2.4-1.6l1.5,0.4
		C80.9,43,79.7,43.6,78.6,44.4 M78.1,42.6c-0.1-0.5-0.1-1,0-1.5c0.6,0,1,0.2,1.6,0.3C79.2,41.9,78.6,42.3,78.1,42.6 M78.2,45.6
		c0.1,0,0.2-0.1,0.3-0.2c0.6,0.9,1.1,1.8,1.6,2.8c-0.8-0.1-1.6-0.3-2.4-0.5C78.1,47.1,78.3,46.3,78.2,45.6 M85.9,48.9
		c0.3,0.2,0.7,0.4,1,0.5v0.7c-0.7-0.1-1.3-0.4-1.8-0.8c-0.7-0.9-0.4-3.9,0-5c0.4-1,2.1-0.6,2.9-0.2c-0.1,0.2-0.2,0.4-0.2,0.7
		c-0.7-0.2-1.8-0.6-2.1,0.1C85.4,46.3,85.5,47.7,85.9,48.9 M88.7,43.3c-1.4-0.2-2.7-0.8-4.1-1.2c-4.2-1.2-8.6-2.2-12.9-2.8
		c-3.1-0.4-6.3-0.7-9.6-1c-3.3-0.3-6.6-0.2-9.8-0.4c-3.4-0.1-6.7-0.1-10.1,0.2c-6.3,0.3-12.5,1.2-18.6,2.6c-1.4,0.4-2.8,0.7-4.1,1.2
		c-1.3,0.4-2.6,1-3.9,1.2c-0.3-0.1-0.5-0.4-0.7-0.7c-0.5-1.5,1.5-2,2.7-2.5c7.2-2.1,14.5-3.4,22-3.9c0.7,0,1.5,0,2.3-0.1
		c1.7,0,3.3-0.2,5.1-0.2h2.8c5.6-0.1,11.2,0.1,16.8,0.7c5,0.5,10,1.3,14.9,2.4c1.4,0.3,2.9,0.9,4.5,1.3c1.6,0.4,3.6,0.8,3.5,2.2
		C89.5,42.7,89.2,43.1,88.7,43.3 M97.1,24.3c-0.1,0.7-0.3,1.4-0.7,2.1c-0.4,0.6-1.1,1-1.9,1c-1-0.2-1.7-1.1-1.8-2.2
		c-0.1-1.9,0.4-3.8,1.5-5.4c0.4-0.6,0.8-1.1,1.2-1.7c0-0.1,0-0.1,0-0.2h0.1c0.3,0.3,0.4,0.8,0.4,1.2c0.7,1.6,1,3.4,1,5.2 M98.6,12.4
		c-0.8,0.7-1.4,1.8-1.4,2.9c-0.2,1.6,0.4,3.3,0.2,4.7c-0.9-0.9-0.7-3-1.4-4.1c-0.5,0.5-0.9,1.1-1.1,1.9c-1.4,1.7-2.3,3.8-2.8,5.9
		c-0.2,1.8,0.5,3.6,1.9,4.8c0,1.3-0.4,2.6-1.2,3.7c-0.4,0.6-1,1.1-1.5,1.7c-0.5,0.6-0.6,1-1,1.4c-1.3,1.2-2.1,2.8-2.3,4.5
		c-11.9-3.9-28.3-5.3-44.1-4.6c-6.4,0.3-12.7,1-19,2.1c-3.2,0.6-6.4,1.5-9.6,2.5c-0.2-1.8-1.1-3.4-2.5-4.5c-1.3-1.9-3.2-3.4-3.4-6
		C9.2,29.2,9.1,29,9,28.9c0.6-0.4,1.1-1,1.4-1.6c0.8-1.8,0.8-4-0.1-5.8c-0.4-0.9-1.2-1.7-1.7-2.6c-0.5-0.9-1-1.8-1.7-2.6
		c-0.4,0.5-0.6,1.1-0.5,1.7c-0.2,0.7-0.4,1.4-0.7,2.1c-1.1-2,0.5-6.3-1.9-7.4c-0.9-0.4-1.9-0.4-2.9,0c-0.6-2.9,4.5-3.2,5.3-1.1
		c0.4-1.5,1.9-2.5,3.4-2.2c-0.1,0.6-0.1,1.1,0,1.7s0,1.2-0.2,1.7c-0.1,0.3-0.3,0.5-0.6,0.7c-0.5,0.4-0.8,1-0.9,1.6
		c0.1,0.1,0.3,0.1,0.4,0.1c0.8-1.5,2.6-2.1,4.1-1.5c0.6,0.5,0.8,1.3,0.6,2c-0.8,0.3-1.6,0.8-2.2,1.4c-0.6,0.5-0.7,1.3-0.3,2
		c0.1-0.6,0.4-1.1,0.8-1.5C12,16.4,15,16,15,18.1c-1-0.2-2,0.5-2.2,1.5c0,0.1,0,0.1,0,0.2c0.5-0.1,0.9-0.4,1.2-0.8
		c1.2-0.6,2.8,0.4,4.2,0.1c0,1.3-0.7,2.4-1.9,2.9c-0.6,0-1.5-0.3-1.7,0.4c1.2-0.1,2.4,0.2,3.4,1c0.9,1.1,0.7,2.8-0.4,3.7
		c-0.1,0.1-0.2,0.1-0.3,0.2c0.7-2.6-2.8-3.9-4.5-2.4c-1.1,1.1-1.5,2.6-1.3,4c0.2,1.9,1,3.8,2.2,5.3c1.3,1.9,3.1,4.1,6.2,3.9
		c0.7,0,1.4-0.2,2.1-0.6c0.5-0.3,0.9-0.7,1.2-1.2c0,0,0.6-1,0.5-1c1,0.6,2.2,0.8,3.4,0.7c0.5,0,0.9-0.1,1.4-0.1
		c1.5-0.1,2.8-0.9,3.4-2.2c0.4,0.2,0.7,0.5,1.1,0.7c0.8,0.4,1.7,0.6,2.6,0.7c0.5,0.1,0.9,0.1,1.4,0c0.8,0,1.6-0.2,2.4-0.4
		c0.5-0.2,1-0.5,1.5-0.8c0.3-0.3,0.6-0.6,0.8-0.9c0.4,0.4,0.8,0.7,1.3,0.9c1,0.3,2.1,0.4,3.1,0.3c4.2-0.2,5.9-2.2,6.3-3.5
		c0.3,0.4,0.5,0.7,0.9,1.1l0.9,0.8c0.3,0.3,0.6,0.5,1,0.7c0.3,0.2,0.6,0.4,1,0.5s0.8,0.3,1.2,0.3c1.4,0.3,2.9,0.2,4.3-0.2
		c0.6-0.2,1.2-0.6,1.5-1.1c0.3,0.5,0.8,1,1.3,1.5c0.4,0.2,0.8,0.4,1.2,0.6c0.4,0.1,0.8,0.2,1.2,0.2c0.6,0,1.2,0,1.9,0
		c1.3,0,2.6-0.5,3.6-1.4c0.1-0.1,0.3-0.2,0.3-0.4c0.7,2,1.7,2.5,3.9,2.9c0.5,0.1,1.1,0.2,1.6,0.2c0.7,0,1.5-0.3,2.1-0.7
		c0,0.1,0,0.3,0.1,0.4c0.2,0.2,0.4,0.5,0.6,0.7c0.7,0.7,1.6,1.1,2.6,1.2c2.6,0.4,4.6-1.7,6.1-3.5c1.1-1.4,1.8-3.1,2.2-4.9
		c0.2-1.4,0-2.9-0.7-4.2c-0.7-1.1-1.9-1.6-3.2-1.4c-1.4,0.3-2.2,1.7-1.9,3.1c0,0.1,0,0.1,0.1,0.2c-1-0.3-1.7-1.3-1.6-2.4
		c0.2-1,0.7-1.8,1.5-2.3c0.9-0.3,1.8-0.4,2.7-0.2c-0.1-0.7-1-0.6-1.7-0.6c-1.2-0.5-2.1-1.7-2-3.1c1.9-0.1,4-0.6,5.2,0.8
		c0.4-0.3,0-0.8-0.2-1c-0.6-0.4-1.2-0.6-1.9-0.7c-0.5-0.7,0.3-1.6,1.2-1.6c0.6,0,1.1,0.2,1.7,0.4c0.6,0.4,0.9,1,1.5,1.4
		c0.2-0.4,0.1-0.8-0.2-1.1c-0.6-0.8-1.5-1.2-2.5-1.4c-1-1.5,1.3-2.8,3-2.2c0.8,0.4,1.4,1,1.9,1.7c0.2,0,0.3-0.1,0.4-0.2
		c-0.2-0.9-0.8-1.6-1.6-2c-0.8-1.2,0.2-2.9-0.4-4.1c1.6,0,3,1,3.6,2.4c0.6-0.6,1.4-1.1,2.2-1.2c1.2-0.1,2.4,0.5,3.1,1.6
		c0.2,0.3,0.3,0.6,0.3,0.9c-1.1-0.4-2.3-0.3-3.4,0.1"/>
	<path class="st0" d="M78.8,14.9c-0.2,0.1-0.4,0.2-0.6,0.3c1.4,0.4,2.1,1.8,1.8,3.1c0,0.1-0.1,0.2-0.1,0.3c-0.2,1.5-1.4,2.6-2.9,2.5
		c0.1,0.1,0.2,0.1,0.3,0.1c1.7,0.3,3.3-0.7,3.7-2.4C81.4,17.2,80.4,15.4,78.8,14.9"/>
	<path class="st0" d="M56,43c-0.1,0.7-0.7,1.3-1.4,1.2l0,0h-4.2C49.7,44.3,49,43.7,49,43v-1.9c0.1-0.7,0.7-1.3,1.4-1.2h4.2
		c0.7-0.1,1.4,0.5,1.4,1.2l0,0V43z"/>
	<path class="st0" d="M75.3,41.5c0.5,0,0.9,0.5,0.9,1v2.9c0,0.5-0.4,0.9-0.9,1L74,46.1c-0.5,0-0.9-0.5-0.9-1v-2.9c0-0.5,0-1.2,0.9-1
		L75.3,41.5z"/>
	<path class="st0" d="M29.8,41.5c-0.5,0-0.9,0.5-0.9,1v2.9c0,0.5,0.4,1,0.9,1l0,0l1.3-0.3c0.5,0,0.9-0.5,0.9-1v-2.9
		c0-0.5,0-1.2-0.9-1L29.8,41.5z"/>
</g>
</svg>
